advent_pro_reg_it.ufo
<glyph name="exclam" format="1">
  <advance width="147"/>
  <unicode hex="0021"/>
  <outline>
    <contour>
      <point x="182.625" y="671" type="line" smooth="yes"/>
      <point x="188.01" y="696.333"/>
      <point x="202.157" y="708"/>
      <point x="223.49" y="708" type="curve" smooth="yes"/>
      <point x="245.49" y="708"/>
      <point x="253.939" y="696"/>
      <point x="248.838" y="672" type="curve" smooth="yes"/>
      <point x="122.507" y="120" type="line"/>
      <point x="75.5068" y="120" type="line"/>
    </contour>
    <contour>
      <point x="87.2413" y="67" type="curve" smooth="yes"/>
      <point x="109.73" y="67"/>
      <point x="116.454" y="50.1874"/>
      <point x="111.942" y="32.2574" type="curve" smooth="yes"/>
      <point x="107.707" y="15.4298"/>
      <point x="93.5491" y="0"/>
      <point x="73" y="0" type="curve" smooth="yes"/>
      <point x="49.9168" y="0"/>
      <point x="43.5333" y="18.9277"/>
      <point x="48.9651" y="37.3624" type="curve" smooth="yes"/>
      <point x="53.7215" y="53.5051"/>
      <point x="67.5037" y="67"/>
    </contour>
  </outline>
</glyph>
<glyph name="quotedbl" format="1">
  <advance width="266"/>
  <unicode hex="0022"/>
  <outline>
    <contour>
      <point x="315.002" y="701" type="line"/>
      <point x="324.952" y="747.812"/>
      <point x="392.991" y="747.992"/>
      <point x="383.002" y="701" type="curve"/>
      <point x="344.558" y="586" type="line"/>
      <point x="304.558" y="586" type="line"/>
    </contour>
    <contour>
      <point x="180.002" y="701" type="line"/>
      <point x="189.952" y="747.812"/>
      <point x="257.991" y="747.992"/>
      <point x="248.002" y="701" type="curve"/>
      <point x="208.558" y="586" type="line"/>
      <point x="169.558" y="586" type="line"/>
    </contour>
  </outline>
</glyph>
<glyph name="ampersand" format="1">
  <advance width="527"/>
  <unicode hex="0026"/>
  <outline>
    <contour>
      <point x="516.374" y="651" type="line"/>
      <point x="379.374" y="651" type="line" smooth="yes"/>
      <point x="323.064" y="651"/>
      <point x="280.145" y="607.102"/>
      <point x="267.418" y="543" type="curve" smooth="yes"/>
      <point x="251.683" y="463.742"/>
      <point x="300.57" y="402"/>
      <point x="380.448" y="402" type="curve" smooth="yes"/>
      <point x="430.448" y="402" type="line"/>
      <point x="452.341" y="505" type="line"/>
      <point x="505.341" y="505" type="line"/>
      <point x="483.66" y="403" type="line"/>
      <point x="582.66" y="403" type="line"/>
      <point x="548.182" y="349" type="line"/>
      <point x="472.182" y="349" type="line"/>
      <point x="426.908" y="136" type="line" smooth="yes"/>
      <point x="415.855" y="84"/>
      <point x="432.628" y="50"/>
      <point x="473.227" y="34" type="curve"/>
      <point x="451.087" y="-9" type="line"/>
      <point x="408.588" y="4.33333"/>
      <point x="382.193" y="26"/>
      <point x="375.179" y="62" type="curve"/>
      <point x="325.035" y="14.0566"/>
      <point x="250" y="-6"/>
      <point x="205.725" y="-6" type="curve" smooth="yes"/>
      <point x="101" y="-6"/>
      <point x="42.4434" y="45.8691"/>
      <point x="63.7965" y="159" type="curve"/>
      <point x="83.9894" y="254" type="line" smooth="yes"/>
      <point x="105.873" y="356.955"/>
      <point x="166.473" y="396.678"/>
      <point x="239.448" y="402" type="curve"/>
      <point x="258.448" y="402" type="line"/>
      <point x="206.729" y="442.172"/>
      <point x="205.34" y="504.685"/>
      <point x="212.056" y="546" type="curve" smooth="yes"/>
      <point x="227.256" y="636.419"/>
      <point x="294.072" y="702"/>
      <point x="387.215" y="702" type="curve" smooth="yes"/>
      <point x="552.215" y="702" type="line"/>
    </contour>
    <contour>
      <point x="419.182" y="349" type="line"/>
      <point x="258.182" y="349" type="line" smooth="yes"/>
      <point x="222.422" y="349"/>
      <point x="158.858" y="342.77"/>
      <point x="139.352" y="251" type="curve" smooth="yes"/>
      <point x="120.859" y="164" type="line" smooth="yes"/>
      <point x="104.422" y="86.6667"/>
      <point x="141.594" y="42"/>
      <point x="228.628" y="50" type="curve" smooth="yes"/>
      <point x="311.334" y="57.905"/>
      <point x="367.511" y="105.908"/>
      <point x="382.41" y="176" type="curve" smooth="yes"/>
    </contour>
  </outline>
</glyph>
<glyph name="parenleft" format="1">
  <advance width="181"/>
  <unicode hex="0028"/>
  <outline>
    <contour>
      <point x="329.369" y="778" type="line"/>
      <point x="277.096" y="745.915"/>
      <point x="244.824" y="695.457"/>
      <point x="231.973" y="635" type="curve" smooth="yes"/>
      <point x="191.056" y="442.5"/>
      <point x="150.936" y="253.75"/>
      <point x="110.179" y="62" type="curve" smooth="yes"/>
      <point x="96.7952" y="-0.963493"/>
      <point x="108.262" y="-49.0087"/>
      <point x="146.783" y="-81" type="curve"/>
      <point x="120.706" y="-119" type="line"/>
      <point x="77.7142" y="-81.4392"/>
      <point x="28.7581" y="-57.5936"/>
      <point x="55.879" y="70" type="curve" smooth="yes"/>
      <point x="173.848" y="625" type="line" smooth="yes"/>
      <point x="195.228" y="725.587"/>
      <point x="240.574" y="776.717"/>
      <point x="319.234" y="815" type="curve"/>
    </contour>
  </outline>
</glyph>
<glyph name="period" format="1">
  <advance width="136"/>
  <unicode hex="002E"/>
  <outline>
    <contour>
      <point x="80.1157" y="57" type="curve" smooth="yes"/>
      <point x="98.7824" y="57"/>
      <point x="111.069" y="42.6667"/>
      <point x="107.101" y="24" type="curve" smooth="yes"/>
      <point x="103.134" y="5.33333"/>
      <point x="84.7536" y="-9"/>
      <point x="66.087" y="-9" type="curve" smooth="yes"/>
      <point x="48.7536" y="-9"/>
      <point x="36.1336" y="5.33333"/>
      <point x="40.1013" y="24" type="curve" smooth="yes"/>
      <point x="44.0691" y="42.6667"/>
      <point x="62.7824" y="57"/>
    </contour>
  </outline>
</glyph>
<glyph name="three" format="1">
  <advance width="442"/>
  <unicode hex="0033"/>
  <outline>
    <contour>
      <point x="289.786" y="413" type="line"/>
      <point x="348.453" y="413"/>
      <point x="394.847" y="391.333"/>
      <point x="427.395" y="350" type="curve" smooth="yes"/>
      <point x="459.134" y="308"/>
      <point x="468.769" y="257.667"/>
      <point x="456.299" y="199" type="curve" smooth="yes"/>
      <point x="443.829" y="140.333"/>
      <point x="412.938" y="90.6667"/>
      <point x="363.628" y="50" type="curve" smooth="yes"/>
      <point x="313.509" y="8.66667"/>
      <point x="258.783" y="-12"/>
      <point x="199.449" y="-12" type="curve" smooth="yes"/>
      <point x="127.449" y="-12"/>
      <point x="69.9097" y="24.6667"/>
      <point x="43.4296" y="82" type="curve"/>
      <point x="95.8063" y="112" type="line"/>
      <point x="116.837" y="66.6667"/>
      <point x="155.352" y="44"/>
      <point x="211.352" y="44" type="curve" smooth="yes"/>
      <point x="254.019" y="44"/>
      <point x="294.662" y="58"/>
      <point x="332.13" y="90" type="curve" smooth="yes"/>
      <point x="369.421" y="120.754"/>
      <point x="393.166" y="162.428"/>
      <point x="401.082" y="203.463" type="curve" smooth="yes"/>
      <point x="408.444" y="241.628"/>
      <point x="402.114" y="279.24"/>
      <point x="380.255" y="307" type="curve"/>
      <point x="357.723" y="339"/>
      <point x="325.791" y="355"/>
      <point x="284.458" y="355" type="curve" smooth="yes"/>
      <point x="173.458" y="355" type="line"/>
      <point x="427.249" y="641" type="line"/>
      <point x="206.249" y="641" type="line"/>
      <point x="218.364" y="698" type="line"/>
      <point x="507.364" y="698" type="line"/>
      <point x="496.949" y="649" type="line"/>
      <point x="287.786" y="413" type="line"/>
    </contour>
  </outline>
</glyph>
<glyph name="seven" format="1">
  <advance width="434"/>
  <unicode hex="0037"/>
  <outline>
    <contour>
      <point x="99" y="0" type="line"/>
      <point x="37" y="0" type="line"/>
      <point x="490.249" y="641" type="line"/>
      <point x="162.249" y="641" type="line"/>
      <point x="174.364" y="698" type="line"/>
      <point x="565.364" y="698" type="line"/>
      <point x="553.674" y="643" type="line"/>
    </contour>
  </outline>
</glyph>
<glyph name="eight" format="1">
  <advance width="481"/>
  <unicode hex="0038"/>
  <outline>
    <contour>
      <point x="390.277" y="707" type="curve" smooth="yes"/>
      <point x="439.611" y="707"/>
      <point x="477.664" y="690"/>
      <point x="504.437" y="656" type="curve" smooth="yes"/>
      <point x="531.735" y="621.333"/>
      <point x="538.637" y="581.667"/>
      <point x="527.868" y="531" type="curve" smooth="yes"/>
      <point x="518.798" y="488.333"/>
      <point x="499.551" y="452.667"/>
      <point x="470.124" y="424" type="curve" smooth="yes"/>
      <point x="456.623" y="410.667"/>
      <point x="439.527" y="397.667"/>
      <point x="421.259" y="387" type="curve"/>
      <point x="441.092" y="373.667"/>
      <point x="463.628" y="352.667"/>
      <point x="479.293" y="326" type="curve"/>
      <point x="498.308" y="290"/>
      <point x="504.714" y="248"/>
      <point x="494.511" y="200" type="curve" smooth="yes"/>
      <point x="482.325" y="142.667"/>
      <point x="450.463" y="90"/>
      <point x="400.628" y="50" type="curve" smooth="yes"/>
      <point x="350.509" y="8.66667"/>
      <point x="295.783" y="-12"/>
      <point x="236.449" y="-12" type="curve" smooth="yes"/>
      <point x="176.449" y="-12"/>
      <point x="130.842" y="8.66667"/>
      <point x="99.6278" y="50" type="curve"/>
      <point x="66.7968" y="90"/>
      <point x="57.3247" y="142.667"/>
      <point x="69.5113" y="200" type="curve" smooth="yes"/>
      <point x="80.2808" y="250.667"/>
      <point x="107.796" y="297"/>
      <point x="144.781" y="333" type="curve" smooth="yes"/>
      <point x="168.266" y="355.667"/>
      <point x="194.305" y="374.667"/>
      <point x="222.472" y="388" type="curve"/>
      <point x="209.264" y="398"/>
      <point x="198.886" y="410.333"/>
      <point x="191.337" y="425" type="curve"/>
      <point x="174.621" y="453"/>
      <point x="170.082" y="489.667"/>
      <point x="178.868" y="531" type="curve" smooth="yes"/>
      <point x="189.07" y="579"/>
      <point x="214.593" y="620.667"/>
      <point x="255.437" y="656" type="curve" smooth="yes"/>
      <point x="296.664" y="690"/>
      <point x="341.611" y="707"/>
    </contour>
    <contour>
      <point x="326.361" y="411" type="curve" smooth="yes"/>
      <point x="363.694" y="411"/>
      <point x="400.57" y="427.667"/>
      <point x="427.288" y="453" type="curve" smooth="yes"/>
      <point x="450.489" y="474.333"/>
      <point x="466.845" y="502.667"/>
      <point x="473.08" y="532" type="curve" smooth="yes"/>
      <point x="487.404" y="599.388"/>
      <point x="444.772" y="654"/>
      <point x="378.012" y="654" type="curve" smooth="yes"/>
      <point x="312.253" y="654"/>
      <point x="245.387" y="599.307"/>
      <point x="231.08" y="532" type="curve" smooth="yes"/>
      <point x="224.562" y="501.333"/>
      <point x="228.964" y="475"/>
      <point x="244.288" y="453" type="curve" smooth="yes"/>
      <point x="261.57" y="427.667"/>
      <point x="290.361" y="411"/>
    </contour>
    <contour>
      <point x="248.352" y="44" type="curve" smooth="yes"/>
      <point x="335.809" y="44"/>
      <point x="420.25" y="114.085"/>
      <point x="438.511" y="200" type="curve" smooth="yes"/>
      <point x="445.88" y="234.667"/>
      <point x="441.49" y="267.333"/>
      <point x="428.492" y="294" type="curve"/>
      <point x="407.377" y="332.667"/>
      <point x="366.67" y="356"/>
      <point x="314.67" y="356" type="curve" smooth="yes"/>
      <point x="266.67" y="356"/>
      <point x="218.256" y="333.667"/>
      <point x="181.554" y="299" type="curve" smooth="yes"/>
      <point x="154.836" y="273.667"/>
      <point x="133.73" y="238.667"/>
      <point x="125.511" y="200" type="curve" smooth="yes"/>
      <point x="107.215" y="113.922"/>
      <point x="162.27" y="44"/>
    </contour>
  </outline>
</glyph>
<glyph name="semicolon" format="1">
  <advance width="149"/>
  <unicode hex="003B"/>
  <outline>
    <contour>
      <point x="45.4395" y="35" type="line"/>
      <point x="72.441" y="61.6667"/>
      <point x="85.18" y="88.6667"/>
      <point x="92.3812" y="110" type="curve"/>
      <point x="76.948" y="112.667"/>
      <point x="67.9947" y="127"/>
      <point x="71.3956" y="143" type="curve" smooth="yes"/>
      <point x="75.3633" y="161.667"/>
      <point x="92.7433" y="176"/>
      <point x="111.41" y="176" type="curve" smooth="yes"/>
      <point x="130.077" y="176"/>
      <point x="141.313" y="163"/>
      <point x="138.396" y="143" type="curve"/>
      <point x="125.04" y="80.1645"/>
      <point x="83.1697" y="40.1762"/>
      <point x="59.8889" y="23" type="curve"/>
    </contour>
    <contour>
      <point x="191.622" y="384" type="curve" smooth="yes"/>
      <point x="187.654" y="365.333"/>
      <point x="170.274" y="351"/>
      <point x="151.607" y="351" type="curve" smooth="yes"/>
      <point x="134.274" y="351"/>
      <point x="120.654" y="365.333"/>
      <point x="124.622" y="384" type="curve" smooth="yes"/>
      <point x="128.589" y="402.667"/>
      <point x="148.303" y="417"/>
      <point x="165.636" y="417" type="curve" smooth="yes"/>
      <point x="184.303" y="417"/>
      <point x="195.589" y="402.667"/>
    </contour>
  </outline>
</glyph>
<glyph name="B" format="1">
  <advance width="503"/>
  <unicode hex="0042"/>
  <outline>
    <contour>
      <point x="399" y="698" type="line" smooth="yes"/>
      <point x="514" y="698"/>
      <point x="573.178" y="640.667"/>
      <point x="548.805" y="526" type="curve" smooth="yes"/>
      <point x="536.051" y="466"/>
      <point x="503.77" y="422.333"/>
      <point x="453.535" y="393" type="curve"/>
      <point x="452.685" y="389" type="line"/>
      <point x="505.966" y="363.667"/>
      <point x="537.617" y="304"/>
      <point x="517.212" y="208" type="curve" smooth="yes"/>
      <point x="490.855" y="84"/>
      <point x="409.667" y="0"/>
      <point x="271" y="0" type="curve" smooth="yes"/>
      <point x="41" y="0" type="line"/>
      <point x="189.364" y="698" type="line"/>
    </contour>
    <contour>
      <point x="347.361" y="411" type="line" smooth="yes"/>
      <point x="428.444" y="411"/>
      <point x="476.268" y="457.609"/>
      <point x="491.23" y="528" type="curve" smooth="yes"/>
      <point x="507.951" y="606.667"/>
      <point x="474.099" y="645"/>
      <point x="390.099" y="645" type="curve" smooth="yes"/>
      <point x="234.099" y="645" type="line"/>
      <point x="184.361" y="411" type="line"/>
    </contour>
    <contour>
      <point x="280.266" y="53" type="line" smooth="yes"/>
      <point x="376.246" y="53"/>
      <point x="435.436" y="105.553"/>
      <point x="458.062" y="212" type="curve" smooth="yes"/>
      <point x="474.045" y="287.195"/>
      <point x="446.43" y="356"/>
      <point x="360.67" y="356" type="curve" smooth="yes"/>
      <point x="172.67" y="356" type="line"/>
      <point x="108.265" y="53" type="line"/>
    </contour>
  </outline>
</glyph>
<glyph name="C" format="1">
  <advance width="422"/>
  <unicode hex="0043"/>
  <outline>
    <contour>
      <point x="488.399" y="637" type="line"/>
      <point x="454.183" y="651.667"/>
      <point x="420.529" y="658"/>
      <point x="385.862" y="658" type="curve" smooth="yes"/>
      <point x="288.529" y="658"/>
      <point x="221.218" y="617.333"/>
      <point x="198.829" y="512" type="curve" smooth="yes"/>
      <point x="129.323" y="185" type="line" smooth="yes"/>
      <point x="107.146" y="80.6665"/>
      <point x="146.064" y="40"/>
      <point x="246.502" y="40" type="curve" smooth="yes"/>
      <point x="285.718" y="40"/>
      <point x="337.4" y="50.8674"/>
      <point x="397.666" y="69" type="curve"/>
      <point x="399.889" y="23" type="line"/>
      <point x="338.546" y="1"/>
      <point x="282.541" y="-10"/>
      <point x="231.874" y="-10" type="curve" smooth="yes"/>
      <point x="210.541" y="-10"/>
      <point x="161.804" y="-10.3333"/>
      <point x="119.188" y="15" type="curve" smooth="yes"/>
      <point x="75.5232" y="41.6667"/>
      <point x="55.0431" y="99"/>
      <point x="72.8978" y="183" type="curve" smooth="yes"/>
      <point x="141.979" y="508" type="line" smooth="yes"/>
      <point x="171.639" y="647.541"/>
      <point x="268.471" y="708"/>
      <point x="378.49" y="708" type="curve" smooth="yes"/>
      <point x="430.49" y="708"/>
      <point x="475.485" y="697"/>
      <point x="513.476" y="675" type="curve"/>
    </contour>
  </outline>
</glyph>
<glyph name="K" format="1">
  <advance width="457"/>
  <unicode hex="004B"/>
  <outline>
    <contour>
      <point x="174.812" y="366" type="line"/>
      <point x="468.395" y="698" type="line"/>
      <point x="533.395" y="698" type="line"/>
      <point x="265.402" y="397" type="line"/>
      <point x="437" y="0" type="line"/>
      <point x="370" y="0" type="line"/>
      <point x="217.134" y="344" type="line"/>
      <point x="153.977" y="268" type="line"/>
      <point x="97" y="0" type="line"/>
      <point x="41" y="0" type="line"/>
      <point x="189.395" y="698" type="line"/>
      <point x="245.395" y="698" type="line"/>
    </contour>
  </outline>
</glyph>
<glyph name="P" format="1">
  <advance width="506"/>
  <unicode hex="0050"/>
  <outline>
    <contour>
      <point x="426" y="700" type="line" smooth="yes"/>
      <point x="553" y="700"/>
      <point x="612" y="645"/>
      <point x="576" y="474" type="curve" smooth="yes"/>
      <point x="541" y="308"/>
      <point x="462" y="245"/>
      <point x="329" y="245" type="curve" smooth="yes"/>
      <point x="150" y="245" type="line"/>
      <point x="98" y="0" type="line"/>
      <point x="41" y="0" type="line"/>
      <point x="190" y="700" type="line"/>
    </contour>
    <contour>
      <point x="161" y="300" type="line"/>
      <point x="346" y="300" type="line" smooth="yes"/>
      <point x="422" y="300"/>
      <point x="488" y="321"/>
      <point x="520" y="474" type="curve" smooth="yes"/>
      <point x="550" y="615"/>
      <point x="498" y="647"/>
      <point x="419" y="647" type="curve" smooth="yes"/>
      <point x="235" y="647" type="line"/>
    </contour>
  </outline>
</glyph>
<glyph name="S" format="1">
  <advance width="528"/>
  <unicode hex="0053"/>
  <outline>
    <contour>
      <point x="550.387" y="618" type="line"/>
      <point x="514.277" y="641"/>
      <point x="469.828" y="653"/>
      <point x="422.828" y="653" type="curve" smooth="yes"/>
      <point x="355.828" y="653"/>
      <point x="252.576" y="633"/>
      <point x="234.292" y="547" type="curve" smooth="yes"/>
      <point x="194.961" y="362"/>
      <point x="589.205" y="429"/>
      <point x="536.055" y="179" type="curve" smooth="yes"/>
      <point x="507.78" y="46"/>
      <point x="377.449" y="-12"/>
      <point x="259.449" y="-12" type="curve" smooth="yes"/>
      <point x="166.449" y="-12"/>
      <point x="90.4646" y="21"/>
      <point x="44.5592" y="92" type="curve"/>
      <point x="87.0002" y="127" type="line"/>
      <point x="117.095" y="71"/>
      <point x="198.929" y="42"/>
      <point x="266.929" y="42" type="curve" smooth="yes"/>
      <point x="360.929" y="42"/>
      <point x="455.221" y="81"/>
      <point x="477.756" y="187" type="curve" smooth="yes"/>
      <point x="516.662" y="370"/>
      <point x="127.457" y="322"/>
      <point x="175.292" y="547" type="curve" smooth="yes"/>
      <point x="201.442" y="670"/>
      <point x="331.308" y="707"/>
      <point x="433.308" y="707" type="curve" smooth="yes"/>
      <point x="486.308" y="707"/>
      <point x="536.757" y="695"/>
      <point x="578.442" y="670" type="curve"/>
    </contour>
  </outline>
</glyph>
<glyph name="U" format="1">
  <advance width="496"/>
  <unicode hex="0055"/>
  <outline>
    <contour>
      <point x="495.323" y="185" type="line" smooth="yes"/>
      <point x="481.011" y="117.667"/>
      <point x="449.787" y="68"/>
      <point x="401.652" y="36" type="curve" smooth="yes"/>
      <point x="354.992" y="4.66667"/>
      <point x="302.995" y="-11"/>
      <point x="245.662" y="-11" type="curve" smooth="yes"/>
      <point x="187.662" y="-11"/>
      <point x="141.325" y="4.66667"/>
      <point x="106.652" y="36" type="curve"/>
      <point x="72.9289" y="68.6667"/>
      <point x="63.1525" y="118.333"/>
      <point x="77.323" y="185" type="curve" smooth="yes"/>
      <point x="186.364" y="698" type="line"/>
      <point x="241.364" y="698" type="line"/>
      <point x="132.536" y="186" type="line" smooth="yes"/>
      <point x="121.908" y="136"/>
      <point x="129.972" y="98.6667"/>
      <point x="156.729" y="74" type="curve" smooth="yes"/>
      <point x="178.861" y="52.6667"/>
      <point x="211.927" y="42"/>
      <point x="255.927" y="42" type="curve" smooth="yes"/>
      <point x="303.927" y="42"/>
      <point x="346.882" y="54.3333"/>
      <point x="379.217" y="81" type="curve" smooth="yes"/>
      <point x="408.602" y="106.333"/>
      <point x="430.9" y="140.667"/>
      <point x="440.536" y="186" type="curve" smooth="yes"/>
      <point x="549.364" y="698" type="line"/>
      <point x="604.364" y="698" type="line"/>
    </contour>
  </outline>
</glyph>
<glyph name="bracketright" format="1">
  <advance width="224"/>
  <unicode hex="005D"/>
  <outline>
    <contour>
      <point x="-4.01889" y="-113" type="line"/>
      <point x="5.3336" y="-69" type="line"/>
      <point x="112.459" y="-59" type="line"/>
      <point x="286.543" y="760" type="line"/>
      <point x="183.669" y="770" type="line"/>
      <point x="193.234" y="815" type="line"/>
      <point x="354.234" y="815" type="line"/>
      <point x="156.981" y="-113" type="line"/>
    </contour>
  </outline>
</glyph>
<glyph name="a" format="1">
  <advance width="446"/>
  <unicode hex="0061"/>
  <outline>
    <contour>
      <point x="428.182" y="349" type="curve"/>
      <point x="439.802" y="403.667"/>
      <point x="425.087" y="431.667"/>
      <point x="391.438" y="449" type="curve" smooth="yes"/>
      <point x="368.655" y="461"/>
      <point x="335.96" y="464"/>
      <point x="298.626" y="464" type="curve"/>
      <point x="309.766" y="507" type="line"/>
      <point x="356.433" y="507"/>
      <point x="404.795" y="504"/>
      <point x="441.027" y="480" type="curve" smooth="yes"/>
      <point x="504.005" y="438.789"/>
      <point x="484.17" y="348.964"/>
      <point x="471.004" y="287" type="curve" smooth="yes"/>
      <point x="410" y="0" type="line"/>
      <point x="411.975" y="-0.1176"/>
      <point x="298.8" y="-8.78427"/>
      <point x="249.874" y="-10" type="curve" smooth="yes"/>
      <point x="121.876" y="-13.9736"/>
      <point x="31.8131" y="20.617"/>
      <point x="61.7095" y="168" type="curve" smooth="yes"/>
      <point x="79.3517" y="251" type="line" smooth="yes"/>
      <point x="101.983" y="363.213"/>
      <point x="184.535" y="402"/>
      <point x="264.448" y="402" type="curve" smooth="yes"/>
      <point x="329.781" y="402"/>
      <point x="387.184" y="375.667"/>
    </contour>
    <contour>
      <point x="418.192" y="302" type="line"/>
      <point x="370.862" y="329.581"/>
      <point x="312.246" y="354"/>
      <point x="249.245" y="354" type="curve" smooth="yes"/>
      <point x="214.163" y="354"/>
      <point x="153.439" y="338.906"/>
      <point x="133.927" y="249" type="curve" smooth="yes"/>
      <point x="118.197" y="175" type="line" smooth="yes"/>
      <point x="97.4833" y="80.1103"/>
      <point x="121.602" y="31.8108"/>
      <point x="256.077" y="38" type="curve" smooth="yes"/>
      <point x="322.166" y="41.0417"/>
      <point x="363.732" y="46.3399"/>
      <point x="363.778" y="46" type="curve"/>
    </contour>
  </outline>
</glyph>
<glyph name="b" format="1">
  <advance width="455"/>
  <unicode hex="0062"/>
  <outline>
    <contour>
      <point x="197.114" y="471" type="line"/>
      <point x="246.699" y="491"/>
      <point x="301.645" y="508"/>
      <point x="366.979" y="508" type="curve" smooth="yes"/>
      <point x="446.713" y="508"/>
      <point x="524.972" y="470.333"/>
      <point x="501.095" y="358" type="curve" smooth="yes"/>
      <point x="487.633" y="294.667"/>
      <point x="474.171" y="231.333"/>
      <point x="460.709" y="168" type="curve" smooth="yes"/>
      <point x="429.476" y="21.0572"/>
      <point x="323.926" y="-13.966"/>
      <point x="195.874" y="-10" type="curve" smooth="yes"/>
      <point x="149.473" y="-8.7843"/>
      <point x="38.5371" y="-0.117633"/>
      <point x="41" y="0" type="curve"/>
      <point x="189.364" y="698" type="line"/>
      <point x="245.364" y="698" type="line"/>
    </contour>
    <contour>
      <point x="106.778" y="46" type="curve"/>
      <point x="106.968" y="46.3399"/>
      <point x="146.689" y="41.8955"/>
      <point x="211.077" y="38" type="curve"/>
      <point x="343.476" y="32.6586"/>
      <point x="386.971" y="79.8402"/>
      <point x="407.197" y="175" type="curve" smooth="yes"/>
      <point x="411.072" y="193.229"/>
      <point x="441.137" y="334.673"/>
      <point x="445.245" y="354" type="curve" smooth="yes"/>
      <point x="464.936" y="446.636"/>
      <point x="398.007" y="461"/>
      <point x="360.989" y="461" type="curve" smooth="yes"/>
      <point x="296.989" y="461"/>
      <point x="246.184" y="444.667"/>
      <point x="186.699" y="422" type="curve"/>
      <point x="160.12" y="296.956"/>
      <point x="133.592" y="172.152"/>
    </contour>
  </outline>
</glyph>
<glyph name="c" format="1">
  <advance width="380"/>
  <unicode hex="0063"/>
  <outline>
    <contour>
      <point x="424.399" y="430" type="line"/>
      <point x="381.217" y="452.667"/>
      <point x="316.222" y="463.667"/>
      <point x="271.288" y="453" type="curve" smooth="yes"/>
      <point x="240.538" y="446.333"/>
      <point x="209.549" y="426"/>
      <point x="186.747" y="394" type="curve" smooth="yes"/>
      <point x="169.929" y="371.333"/>
      <point x="156.482" y="341"/>
      <point x="148.83" y="305" type="curve" smooth="yes"/>
      <point x="123.323" y="185" type="line" smooth="yes"/>
      <point x="109.436" y="119.667"/>
      <point x="114.687" y="70.6667"/>
      <point x="164.053" y="52" type="curve"/>
      <point x="220.219" y="24.5556"/>
      <point x="352.856" y="55.7778"/>
      <point x="350.691" y="55" type="curve"/>
      <point x="351.063" y="5" type="line"/>
      <point x="280.712" y="-12.3333"/>
      <point x="197.245" y="-17.6667"/>
      <point x="141.213" y="1" type="curve"/>
      <point x="78.0306" y="23.6667"/>
      <point x="45.0835" y="75.6667"/>
      <point x="65.7723" y="173" type="curve" smooth="yes"/>
      <point x="96.593" y="318" type="line"/>
      <point x="108.612" y="362"/>
      <point x="122.414" y="394"/>
      <point x="146.549" y="426" type="curve"/>
      <point x="182.568" y="470"/>
      <point x="225.811" y="494.667"/>
      <point x="273.129" y="504" type="curve" smooth="yes"/>
      <point x="334.346" y="516"/>
      <point x="397.512" y="502.667"/>
      <point x="449.177" y="476" type="curve"/>
    </contour>
  </outline>
</glyph>
<glyph name="f" format="1">
  <advance width="248"/>
  <unicode hex="0066"/>
  <outline>
    <contour>
      <point x="353.437" y="656" type="line"/>
      <point x="344.387" y="657.333"/>
      <point x="335.862" y="658"/>
      <point x="327.862" y="658" type="curve" smooth="yes"/>
      <point x="267.166" y="658"/>
      <point x="226.967" y="620.854"/>
      <point x="211.481" y="548" type="curve" smooth="yes"/>
      <point x="200.853" y="498" type="line"/>
      <point x="314.853" y="498" type="line"/>
      <point x="280.8" y="446" type="line"/>
      <point x="189.8" y="446" type="line"/>
      <point x="95" y="0" type="line"/>
      <point x="39" y="0" type="line"/>
      <point x="155.481" y="548" type="line" smooth="yes"/>
      <point x="182.195" y="673.68"/>
      <point x="272.923" y="709.969"/>
      <point x="337.49" y="708" type="curve"/>
      <point x="350.823" y="708"/>
      <point x="362.753" y="707.667"/>
      <point x="372.852" y="705" type="curve"/>
    </contour>
  </outline>
</glyph>
<glyph name="g" format="1">
  <advance width="440"/>
  <unicode hex="0067"/>
  <outline>
    <contour>
      <point x="386.394" y="-64" type="line" smooth="yes"/>
      <point x="369.386" y="-144"/>
      <point x="328.456" y="-186"/>
      <point x="247.354" y="-210" type="curve"/>
      <point x="240.496" y="-167" type="line"/>
      <point x="288.457" y="-148.95"/>
      <point x="318.301" y="-116.174"/>
      <point x="329.606" y="-63" type="curve" smooth="yes"/>
      <point x="355.969" y="61" type="line"/>
      <point x="324.834" y="20.1725"/>
      <point x="259.213" y="-12"/>
      <point x="199.449" y="-12" type="curve" smooth="yes"/>
      <point x="87.4488" y="-12"/>
      <point x="42.4095" y="53.6667"/>
      <point x="68.205" y="175" type="curve" smooth="yes"/>
      <point x="104.347" y="345" type="line" smooth="yes"/>
      <point x="126.741" y="450.333"/>
      <point x="200.801" y="513.333"/>
      <point x="309.001" y="508" type="curve" smooth="yes"/>
      <point x="357.146" y="505.976"/>
      <point x="402.357" y="487.177"/>
      <point x="438.883" y="451" type="curve"/>
      <point x="448.875" y="498" type="line"/>
      <point x="505.875" y="498" type="line"/>
    </contour>
    <contour>
      <point x="426.339" y="392" type="line"/>
      <point x="407.777" y="432.879"/>
      <point x="351.908" y="454.149"/>
      <point x="310.371" y="458" type="curve" smooth="yes"/>
      <point x="249.709" y="463.994"/>
      <point x="178.862" y="432.088"/>
      <point x="159.709" y="342" type="curve" smooth="yes"/>
      <point x="122.292" y="166" type="line" smooth="yes"/>
      <point x="104.433" y="82"/>
      <point x="137.504" y="40"/>
      <point x="213.504" y="40" type="curve" smooth="yes"/>
      <point x="289.754" y="40"/>
      <point x="361.79" y="88.3833"/>
      <point x="379.78" y="173" type="curve" smooth="yes"/>
    </contour>
  </outline>
</glyph>
<glyph name="k" format="1">
  <advance width="426"/>
  <unicode hex="006B"/>
  <outline>
    <contour>
      <point x="263.623" y="351" type="line"/>
      <point x="407" y="0" type="line"/>
      <point x="340" y="0" type="line"/>
      <point x="216.182" y="316" type="line"/>
      <point x="154.827" y="272" type="line"/>
      <point x="97" y="0" type="line"/>
      <point x="41" y="0" type="line"/>
      <point x="189.395" y="698" type="line"/>
      <point x="245.395" y="698" type="line"/>
      <point x="168.008" y="334" type="line"/>
      <point x="407.127" y="518" type="line"/>
      <point x="439.048" y="480" type="line"/>
    </contour>
  </outline>
</glyph>
<glyph name="m" format="1">
  <advance width="715"/>
  <unicode hex="006D"/>
  <outline>
    <contour>
      <point x="698.482" y="341" type="line" smooth="yes"/>
      <point x="717.805" y="431.908"/>
      <point x="665.661" y="457"/>
      <point x="602.138" y="457" type="curve" smooth="yes"/>
      <point x="563.472" y="457"/>
      <point x="517.871" y="446.333"/>
      <point x="463.636" y="417" type="curve"/>
      <point x="467.102" y="395.667"/>
      <point x="464.858" y="371"/>
      <point x="458.907" y="343" type="curve" smooth="yes"/>
      <point x="386" y="0" type="line"/>
      <point x="334" y="0" type="line"/>
      <point x="406.482" y="341" type="line" smooth="yes"/>
      <point x="425.805" y="431.908"/>
      <point x="373.66" y="457"/>
      <point x="310.138" y="457" type="curve" smooth="yes"/>
      <point x="264.805" y="457"/>
      <point x="230.134" y="446"/>
      <point x="183.699" y="422" type="curve"/>
      <point x="94" y="0" type="line"/>
      <point x="38" y="0" type="line"/>
      <point x="143.853" y="498" type="line"/>
      <point x="199.853" y="498" type="line"/>
      <point x="192.626" y="464" type="line"/>
      <point x="239.628" y="490.667"/>
      <point x="281.433" y="507"/>
      <point x="330.766" y="507" type="curve" smooth="yes"/>
      <point x="393.433" y="507"/>
      <point x="434.848" y="487"/>
      <point x="453.863" y="451" type="curve"/>
      <point x="517.315" y="492.333"/>
      <point x="580.1" y="507"/>
      <point x="622.766" y="507" type="curve" smooth="yes"/>
      <point x="733.734" y="507"/>
      <point x="774.554" y="449.548"/>
      <point x="751.907" y="343" type="curve" smooth="yes"/>
      <point x="679" y="0" type="line"/>
      <point x="626" y="0" type="line"/>
    </contour>
  </outline>
</glyph>
<glyph name="n" format="1">
  <advance width="442"/>
  <unicode hex="006E"/>
  <outline>
    <contour>
      <point x="423.497" y="341" type="line" smooth="yes"/>
      <point x="442.662" y="431.15"/>
      <point x="382.537" y="458"/>
      <point x="318.371" y="458" type="curve" smooth="yes"/>
      <point x="273.037" y="458"/>
      <point x="230.295" y="446.667"/>
      <point x="184.142" y="424" type="curve"/>
      <point x="94" y="0" type="line"/>
      <point x="38" y="0" type="line"/>
      <point x="144.087" y="499" type="line"/>
      <point x="200.087" y="499" type="line"/>
      <point x="192.859" y="465" type="line"/>
      <point x="237.195" y="491.667"/>
      <point x="290.667" y="508"/>
      <point x="340.001" y="508" type="curve" smooth="yes"/>
      <point x="450.252" y="508"/>
      <point x="501.245" y="448"/>
      <point x="479.134" y="344" type="curve" smooth="yes"/>
      <point x="406" y="0" type="line"/>
      <point x="351" y="0" type="line"/>
    </contour>
  </outline>
</glyph>
<glyph name="p" format="1">
  <advance width="441"/>
  <unicode hex="0070"/>
  <outline>
    <contour>
      <point x="445.197" y="175" type="line" smooth="yes"/>
      <point x="419.407" y="53.6667"/>
      <point x="346.116" y="-12"/>
      <point x="235.449" y="-12" type="curve" smooth="yes"/>
      <point x="172.8" y="-12"/>
      <point x="124.802" y="20.126"/>
      <point x="108.966" y="61" type="curve"/>
      <point x="50.938" y="-212" type="line"/>
      <point x="-0.49966" y="-187.007" type="line"/>
      <point x="144.853" y="498" type="line"/>
      <point x="201.853" y="498" type="line"/>
      <point x="191.863" y="451" type="line"/>
      <point x="243.731" y="487.15"/>
      <point x="297.075" y="505.98"/>
      <point x="345.979" y="508" type="curve" smooth="yes"/>
      <point x="457.779" y="513.333"/>
      <point x="503.721" y="450.333"/>
      <point x="481.332" y="345" type="curve" smooth="yes"/>
    </contour>
    <contour>
      <point x="423.694" y="342" type="line" smooth="yes"/>
      <point x="442.87" y="432.212"/>
      <point x="388.087" y="463.95"/>
      <point x="323.351" y="458" type="curve" smooth="yes"/>
      <point x="278.987" y="454.043"/>
      <point x="217.219" y="432.888"/>
      <point x="179.322" y="392" type="curve"/>
      <point x="132.772" y="173" type="line" smooth="yes"/>
      <point x="114.762" y="88.2664"/>
      <point x="166.554" y="40"/>
      <point x="243.502" y="40" type="curve" smooth="yes"/>
      <point x="318.169" y="40"/>
      <point x="368.43" y="82"/>
      <point x="386.284" y="166" type="curve" smooth="yes"/>
    </contour>
  </outline>
</glyph>
<glyph name="q" format="1">
  <advance width="440"/>
  <unicode hex="0071"/>
  <outline>
    <contour>
      <point x="356.178" y="62" type="line"/>
      <point x="325.119" y="21.2688"/>
      <point x="259.246" y="-11"/>
      <point x="199.662" y="-11" type="curve" smooth="yes"/>
      <point x="87.6619" y="-11"/>
      <point x="42.6198" y="54.6667"/>
      <point x="68.41" y="176" type="curve" smooth="yes"/>
      <point x="104.332" y="345" type="line" smooth="yes"/>
      <point x="127.005" y="451.667"/>
      <point x="200.992" y="514.333"/>
      <point x="309.191" y="509" type="curve" smooth="yes"/>
      <point x="357.438" y="506.972"/>
      <point x="402.512" y="488.213"/>
      <point x="439.076" y="452" type="curve"/>
      <point x="448.853" y="498" type="line"/>
      <point x="505.853" y="498" type="line"/>
      <point x="355.151" y="-211" type="line"/>
      <point x="302.816" y="-187.007" type="line"/>
    </contour>
    <contour>
      <point x="426.535" y="393" type="line"/>
      <point x="407.421" y="435.09"/>
      <point x="352.702" y="455.094"/>
      <point x="310.563" y="459" type="curve"/>
      <point x="249.441" y="462.998"/>
      <point x="178.99" y="432.779"/>
      <point x="159.907" y="343" type="curve" smooth="yes"/>
      <point x="122.497" y="167" type="line" smooth="yes"/>
      <point x="104.926" y="84.3333"/>
      <point x="137.715" y="41"/>
      <point x="213.715" y="41" type="curve" smooth="yes"/>
      <point x="290.843" y="41"/>
      <point x="361.67" y="87.8342"/>
      <point x="379.772" y="173" type="curve" smooth="yes"/>
    </contour>
  </outline>
</glyph>
<glyph name="r" format="1">
  <advance width="332"/>
  <unicode hex="0072"/>
  <outline>
    <contour>
      <point x="402.583" y="459" type="line"/>
      <point x="402.583" y="459"/>
      <point x="382.413" y="461.333"/>
      <point x="360.796" y="460" type="curve" smooth="yes"/>
      <point x="304.87" y="458.018"/>
      <point x="221.951" y="432.616"/>
      <point x="180.741" y="408" type="curve"/>
      <point x="94" y="0" type="line"/>
      <point x="38" y="0" type="line"/>
      <point x="144.087" y="499" type="line"/>
      <point x="200.087" y="499" type="line"/>
      <point x="193.072" y="466" type="line"/>
      <point x="247.224" y="488.667"/>
      <point x="299.859" y="507.333"/>
      <point x="372.426" y="510" type="curve"/>
      <point x="396.993" y="512.667"/>
      <point x="416.788" y="507"/>
      <point x="416.788" y="507" type="curve"/>
    </contour>
  </outline>
</glyph>
<glyph name="s" format="1">
  <advance width="416"/>
  <unicode hex="0073"/>
  <outline>
    <contour>
      <point x="415.119" y="438" type="line"/>
      <point x="389.912" y="455.336"/>
      <point x="348.865" y="464.945"/>
      <point x="313.434" y="463" type="curve" smooth="yes"/>
      <point x="255.796" y="460"/>
      <point x="184.843" y="432"/>
      <point x="181.386" y="364" type="curve" smooth="yes"/>
      <point x="180.567" y="341.333"/>
      <point x="194.287" y="324.333"/>
      <point x="214.119" y="311" type="curve" smooth="yes"/>
      <point x="235.284" y="297.667"/>
      <point x="263.279" y="286.667"/>
      <point x="291.678" y="276" type="curve" smooth="yes"/>
      <point x="355.15" y="250"/>
      <point x="426.347" y="218"/>
      <point x="414.276" y="133" type="curve" smooth="yes"/>
      <point x="405.604" y="79.6667"/>
      <point x="369.129" y="36.6667"/>
      <point x="322.126" y="10" type="curve" smooth="yes"/>
      <point x="288.824" y="-8.66667"/>
      <point x="249.167" y="-18"/>
      <point x="209.173" y="-18" type="curve" smooth="yes"/>
      <point x="175.819" y="-18"/>
      <point x="143.066" y="-10.6667"/>
      <point x="112.85" y="4" type="curve" smooth="yes"/>
      <point x="85.3019" y="18.6667"/>
      <point x="59.5539" y="38.6667"/>
      <point x="40.4568" y="68" type="curve"/>
      <point x="78.26" y="100" type="line"/>
      <point x="112.906" y="56"/>
      <point x="158.228" y="34"/>
      <point x="220.228" y="34" type="curve" smooth="yes"/>
      <point x="271.228" y="34"/>
      <point x="346.969" y="61"/>
      <point x="359.937" y="122" type="curve" smooth="yes"/>
      <point x="366.178" y="151.355"/>
      <point x="358.234" y="172"/>
      <point x="338.969" y="188" type="curve" smooth="yes"/>
      <point x="319.987" y="205.333"/>
      <point x="289.943" y="217.667"/>
      <point x="258.111" y="231" type="curve" smooth="yes"/>
      <point x="224.945" y="244.333"/>
      <point x="191.337" y="255.913"/>
      <point x="165.89" y="277" type="curve" smooth="yes"/>
      <point x="141.424" y="297.274"/>
      <point x="124.588" y="323.161"/>
      <point x="128.961" y="362" type="curve" smooth="yes"/>
      <point x="135.102" y="416.541"/>
      <point x="168.421" y="456.667"/>
      <point x="212.473" y="482" type="curve" smooth="yes"/>
      <point x="244.442" y="500.667"/>
      <point x="282.771" y="510"/>
      <point x="321.426" y="510" type="curve" smooth="yes"/>
      <point x="362.154" y="510"/>
      <point x="402.815" y="504.689"/>
      <point x="445.985" y="475" type="curve"/>
    </contour>
  </outline>
</glyph>
<glyph name="braceleft" format="1">
  <advance width="257"/>
  <unicode hex="007B"/>
  <outline>
    <contour>
      <point x="271.467" y="515" type="line" smooth="yes"/>
      <point x="265.515" y="487"/>
      <point x="256.301" y="459.333"/>
      <point x="243.824" y="432" type="curve" smooth="yes"/>
      <point x="231.348" y="404.667"/>
      <point x="206.68" y="378"/>
      <point x="169.82" y="352" type="curve"/>
      <point x="195.627" y="326"/>
      <point x="208.959" y="299.333"/>
      <point x="209.815" y="272" type="curve" smooth="yes"/>
      <point x="210.672" y="244.667"/>
      <point x="208.125" y="217"/>
      <point x="202.173" y="189" type="curve" smooth="yes"/>
      <point x="178.154" y="76" type="line" smooth="yes"/>
      <point x="159.327" y="-12.578"/>
      <point x="196.11" y="-51.5315"/>
      <point x="223.759" y="-67" type="curve"/>
      <point x="190.131" y="-117" type="line"/>
      <point x="185.551" y="-114.438"/>
      <point x="87.1011" y="-84.2083"/>
      <point x="121.154" y="76" type="curve" smooth="yes"/>
      <point x="145.173" y="189" type="line" smooth="yes"/>
      <point x="151.125" y="217"/>
      <point x="153.126" y="243.667"/>
      <point x="151.178" y="269" type="curve" smooth="yes"/>
      <point x="149.229" y="294.333"/>
      <point x="135.21" y="319.333"/>
      <point x="109.119" y="344" type="curve" smooth="yes"/>
      <point x="99.8199" y="352" type="line"/>
      <point x="112.52" y="360" type="line" smooth="yes"/>
      <point x="148.955" y="384"/>
      <point x="173.567" y="408.833"/>
      <point x="186.356" y="434.5" type="curve" smooth="yes"/>
      <point x="199.145" y="460.167"/>
      <point x="208.515" y="487"/>
      <point x="214.467" y="515" type="curve" smooth="yes"/>
      <point x="238.486" y="628" type="line" smooth="yes"/>
      <point x="272.694" y="788.94"/>
      <point x="385.854" y="817.161"/>
      <point x="389.296" y="820" type="curve"/>
      <point x="401.094" y="772" type="line"/>
      <point x="368.646" y="756.14"/>
      <point x="314.59" y="717.88"/>
      <point x="295.486" y="628" type="curve" smooth="yes"/>
    </contour>
  </outline>
</glyph>
<glyph name="exclamdown" format="1">
  <advance width="147"/>
  <unicode hex="00A1"/>
  <outline>
    <contour>
      <point x="113.652" y="36" type="line" smooth="yes"/>
      <point x="108.551" y="12"/>
      <point x="95" y="0"/>
      <point x="73" y="0" type="curve" smooth="yes"/>
      <point x="51.6667" y="0"/>
      <point x="42.4798" y="11.6667"/>
      <point x="47.8646" y="37" type="curve" smooth="yes"/>
      <point x="174.983" y="588" type="line"/>
      <point x="221.983" y="588" type="line"/>
    </contour>
    <contour>
      <point x="249.263" y="674" type="curve" smooth="yes"/>
      <point x="245.579" y="656.667"/>
      <point x="227.915" y="641"/>
      <point x="209.249" y="641" type="curve" smooth="yes"/>
      <point x="190.582" y="641"/>
      <point x="178.579" y="656.667"/>
      <point x="182.263" y="674" type="curve" smooth="yes"/>
      <point x="186.231" y="692.667"/>
      <point x="204.611" y="707"/>
      <point x="223.277" y="707" type="curve" smooth="yes"/>
      <point x="241.944" y="707"/>
      <point x="253.231" y="692.667"/>
    </contour>
  </outline>
</glyph>
<glyph name="dieresis" format="1">
  <advance width="266"/>
  <unicode hex="00A8"/>
  <outline>
    <contour>
      <point x="211.292" y="740" type="curve" smooth="yes"/>
      <point x="229.959" y="740"/>
      <point x="242.033" y="724.667"/>
      <point x="238.065" y="706" type="curve" smooth="yes"/>
      <point x="234.097" y="687.333"/>
      <point x="215.717" y="673"/>
      <point x="197.051" y="673" type="curve" smooth="yes"/>
      <point x="179.717" y="673"/>
      <point x="167.097" y="687.333"/>
      <point x="171.065" y="706" type="curve" smooth="yes"/>
      <point x="175.033" y="724.667"/>
      <point x="193.959" y="740"/>
    </contour>
    <contour>
      <point x="367.312" y="739.853" type="curve" smooth="yes"/>
      <point x="385.979" y="739.853"/>
      <point x="398.053" y="724.52"/>
      <point x="394.085" y="705.853" type="curve" smooth="yes"/>
      <point x="390.118" y="687.186"/>
      <point x="371.738" y="672.853"/>
      <point x="353.071" y="672.853" type="curve" smooth="yes"/>
      <point x="335.738" y="672.853"/>
      <point x="323.118" y="687.186"/>
      <point x="327.085" y="705.853" type="curve" smooth="yes"/>
      <point x="331.053" y="724.52"/>
      <point x="349.979" y="739.853"/>
    </contour>
  </outline>
</glyph>
<glyph name="copyright" format="1">
  <advance width="694"/>
  <unicode hex="00A9"/>
  <outline>
    <contour>
      <point x="701.748" y="187" type="line" smooth="yes"/>
      <point x="665.355" y="15.7865"/>
      <point x="515.805" y="-69"/>
      <point x="331.334" y="-69" type="curve" smooth="yes"/>
      <point x="149.176" y="-69"/>
      <point x="34.2876" y="15.4673"/>
      <point x="70.748" y="187" type="curve" smooth="yes"/>
      <point x="100.293" y="326" type="line" smooth="yes"/>
      <point x="136.153" y="494.705"/>
      <point x="287.141" y="582"/>
      <point x="469.708" y="582" type="curve" smooth="yes"/>
      <point x="653.754" y="582"/>
      <point x="767.219" y="495.018"/>
      <point x="731.293" y="326" type="curve" smooth="yes"/>
    </contour>
    <contour>
      <point x="666.98" y="301" type="line" smooth="yes"/>
      <point x="701.863" y="465.115"/>
      <point x="632.694" y="528"/>
      <point x="458.23" y="528" type="curve" smooth="yes"/>
      <point x="283.002" y="528"/>
      <point x="188.879" y="465.19"/>
      <point x="153.98" y="301" type="curve" smooth="yes"/>
      <point x="134.849" y="211" type="line" smooth="yes"/>
      <point x="100.279" y="48.3577"/>
      <point x="168.555" y="-15"/>
      <point x="342.812" y="-15" type="curve" smooth="yes"/>
      <point x="518.241" y="-15"/>
      <point x="613.27" y="48.3153"/>
      <point x="647.849" y="211" type="curve" smooth="yes"/>
    </contour>
    <contour>
      <point x="566.409" y="383" type="line"/>
      <point x="533.703" y="396.865"/>
      <point x="496.273" y="404"/>
      <point x="462.873" y="404" type="curve" smooth="yes"/>
      <point x="418.873" y="404"/>
      <point x="383.222" y="394.667"/>
      <point x="353.921" y="376" type="curve" smooth="yes"/>
      <point x="315.487" y="352"/>
      <point x="288.893" y="310"/>
      <point x="276.989" y="254" type="curve" smooth="yes"/>
      <point x="265.936" y="202"/>
      <point x="268.321" y="158.333"/>
      <point x="296.27" y="133" type="curve" smooth="yes"/>
      <point x="315.536" y="117"/>
      <point x="346.623" y="108"/>
      <point x="391.956" y="108" type="curve" smooth="yes"/>
      <point x="431.709" y="108"/>
      <point x="482.333" y="118.078"/>
      <point x="543.12" y="137" type="curve"/>
      <point x="545.13" y="90" type="line"/>
      <point x="484.595" y="68.6667"/>
      <point x="428.328" y="58"/>
      <point x="376.328" y="58" type="curve" smooth="yes"/>
      <point x="354.995" y="58"/>
      <point x="307.531" y="56.0236"/>
      <point x="264.43" y="82" type="curve" smooth="yes"/>
      <point x="221.162" y="108.077"/>
      <point x="201.072" y="165"/>
      <point x="218.927" y="249" type="curve" smooth="yes"/>
      <point x="237.632" y="337"/>
      <point x="279.272" y="393.333"/>
      <point x="343.974" y="428" type="curve" smooth="yes"/>
      <point x="377.275" y="446.667"/>
      <point x="415.288" y="453"/>
      <point x="455.288" y="453" type="curve" smooth="yes"/>
      <point x="505.955" y="453"/>
      <point x="553.758" y="442.667"/>
      <point x="590.274" y="420" type="curve"/>
    </contour>
  </outline>
</glyph>
<glyph name="mu" format="1">
  <advance width="464"/>
  <unicode hex="00B5"/>
  <outline>
    <contour>
      <point x="427.984" y="94" type="line"/>
      <point x="418.27" y="51.8333"/>
      <point x="441.904" y="25.4167"/>
      <point x="440.528" y="26" type="curve"/>
      <point x="406.724" y="-6" type="line"/>
      <point x="407.419" y="-5.0833"/>
      <point x="383" y="3"/>
      <point x="370" y="40" type="curve"/>
      <point x="338" y="5.03667"/>
      <point x="293.145" y="-12"/>
      <point x="243.449" y="-12" type="curve" smooth="yes"/>
      <point x="134.323" y="-12"/>
      <point x="107.246" y="55.3334"/>
      <point x="107" y="53" type="curve"/>
      <point x="51.5666" y="-209" type="line"/>
      <point x="-1.38565" y="-185.744" type="line"/>
      <point x="145.087" y="499" type="line"/>
      <point x="202.087" y="499" type="line"/>
      <point x="129.969" y="157.799" type="line" smooth="yes"/>
      <point x="115.286" y="88.3331"/>
      <point x="172.515" y="32.8486"/>
      <point x="259" y="43" type="curve" smooth="yes"/>
      <point x="328.606" y="51.1703"/>
      <point x="374.83" y="98.2907"/>
      <point x="390.153" y="172.955" type="curve" smooth="yes"/>
      <point x="456.45" y="496" type="line"/>
      <point x="516.001" y="508" type="line"/>
    </contour>
  </outline>
</glyph>
<glyph name="AE" format="1">
  <advance width="750"/>
  <unicode hex="00C6"/>
  <outline>
    <contour>
      <point x="383" y="0" type="line"/>
      <point x="434.651" y="243" type="line"/>
      <point x="224.651" y="243" type="line"/>
      <point x="79" y="0" type="line"/>
      <point x="20" y="0" type="line"/>
      <point x="439.364" y="698" type="line"/>
      <point x="867.364" y="698" type="line"/>
      <point x="856.099" y="645" type="line"/>
      <point x="577.099" y="645" type="line"/>
      <point x="527.786" y="413" type="line"/>
      <point x="718.786" y="413" type="line"/>
      <point x="687.458" y="355" type="line"/>
      <point x="515.458" y="355" type="line"/>
      <point x="450.628" y="50" type="line"/>
      <point x="726.628" y="50" type="line"/>
      <point x="716" y="0" type="line"/>
    </contour>
    <contour>
      <point x="257.554" y="299" type="line"/>
      <point x="446.554" y="299" type="line"/>
      <point x="520.099" y="645" type="line"/>
      <point x="466.099" y="645" type="line"/>
    </contour>
  </outline>
</glyph>
<glyph name="Oslash" format="1">
  <advance width="490"/>
  <unicode hex="00D8"/>
  <outline>
    <component base="O"/>
    <contour>
      <point x="61.9811" y="-113" type="line"/>
      <point x="583.234" y="815" type="line"/>
      <point x="639.234" y="815" type="line"/>
      <point x="122.981" y="-113" type="line"/>
    </contour>
  </outline>
</glyph>
<glyph name="Thorn" format="1">
  <advance width="430"/>
  <unicode hex="00DE"/>
  <outline>
    <contour>
      <point x="461.429" y="289" type="line" smooth="yes"/>
      <point x="440" y="192"/>
      <point x="387.233" y="140.667"/>
      <point x="313.082" y="118" type="curve" smooth="yes"/>
      <point x="256.064" y="100.667"/>
      <point x="181.347" y="102"/>
      <point x="122.082" y="118" type="curve"/>
      <point x="97" y="0" type="line"/>
      <point x="41" y="0" type="line"/>
      <point x="189.364" y="698" type="line"/>
      <point x="245.364" y="698" type="line"/>
      <point x="224.321" y="599" type="line"/>
      <point x="282.473" y="621.667"/>
      <point x="346.386" y="630.667"/>
      <point x="394.785" y="620" type="curve" smooth="yes"/>
      <point x="487" y="599"/>
      <point x="509" y="517"/>
      <point x="492.462" y="435" type="curve" smooth="yes"/>
    </contour>
    <contour>
      <point x="374.157" y="570" type="curve" smooth="yes"/>
      <point x="337" y="581"/>
      <point x="262.23" y="568.256"/>
      <point x="213.268" y="547" type="curve"/>
      <point x="132.922" y="169" type="line"/>
      <point x="153.614" y="166.343"/>
      <point x="248.719" y="144.293"/>
      <point x="311.709" y="168" type="curve" smooth="yes"/>
      <point x="367.961" y="188"/>
      <point x="395.809" y="234.333"/>
      <point x="409.98" y="301" type="curve" smooth="yes"/>
      <point x="435.274" y="420" type="line" smooth="yes"/>
      <point x="448" y="478"/>
      <point x="442" y="550"/>
    </contour>
  </outline>
</glyph>
<glyph name="germandbls" format="1">
  <advance width="464"/>
  <unicode hex="00DF"/>
  <outline>
    <contour>
      <point x="95" y="0" type="line"/>
      <point x="76.3333" y="0"/>
      <point x="57.6667" y="0"/>
      <point x="39" y="0" type="curve"/>
      <point x="152.93" y="536" type="line" smooth="yes"/>
      <point x="174.731" y="638.565"/>
      <point x="235" y="695"/>
      <point x="321.364" y="698" type="curve" smooth="yes"/>
      <point x="406" y="701"/>
      <point x="436" y="635"/>
      <point x="425.157" y="570" type="curve" smooth="yes"/>
      <point x="419" y="533"/>
      <point x="400.449" y="497.667"/>
      <point x="368.964" y="475" type="curve"/>
      <point x="370.214" y="475"/>
      <point x="337.714" y="475"/>
      <point x="338.964" y="475" type="curve"/>
      <point x="328.414" y="463"/>
      <point x="323.53" y="451"/>
      <point x="322.312" y="439" type="curve" smooth="yes"/>
      <point x="320.172" y="399.843"/>
      <point x="357.501" y="364.456"/>
      <point x="395.656" y="323" type="curve" smooth="yes"/>
      <point x="439.837" y="274.997"/>
      <point x="484.276" y="217.714"/>
      <point x="467.97" y="141" type="curve" smooth="yes"/>
      <point x="446.448" y="39.7426"/>
      <point x="361.932" y="-7.02799"/>
      <point x="279.662" y="-11" type="curve" smooth="yes"/>
      <point x="225.405" y="-12.9938"/>
      <point x="174.15" y="3.71077"/>
      <point x="140.652" y="36" type="curve"/>
      <point x="173" y="77" type="line"/>
      <point x="211" y="46"/>
      <point x="243.124" y="43"/>
      <point x="282.14" y="43" type="curve" smooth="yes"/>
      <point x="338.59" y="43"/>
      <point x="396.286" y="76.6177"/>
      <point x="410.396" y="143" type="curve" smooth="yes"/>
      <point x="423.291" y="203.669"/>
      <point x="381.416" y="249.449"/>
      <point x="339.492" y="294" type="curve" smooth="yes"/>
      <point x="299.232" y="336.783"/>
      <point x="258.072" y="380.003"/>
      <point x="264.037" y="433" type="curve"/>
      <point x="267.522" y="455.667"/>
      <point x="276.502" y="480.667"/>
      <point x="296.554" y="506" type="curve"/>
      <point x="341.887" y="506"/>
      <point x="366.518" y="540.333"/>
      <point x="371.22" y="575" type="curve" smooth="yes"/>
      <point x="376.844" y="610.823"/>
      <point x="357.783" y="645"/>
      <point x="315.099" y="645" type="curve" smooth="yes"/>
      <point x="259.766" y="645"/>
      <point x="224.589" y="609.667"/>
      <point x="209.568" y="539" type="curve" smooth="yes"/>
    </contour>
  </outline>
</glyph>
<glyph name="ae" format="1">
  <advance width="747"/>
  <unicode hex="00E6"/>
  <outline>
    <contour>
      <point x="441.27" y="133" type="line" smooth="yes"/>
      <point x="421.029" y="37.7741"/>
      <point x="500.034" y="36"/>
      <point x="531.652" y="36" type="curve" smooth="yes"/>
      <point x="584.985" y="36"/>
      <point x="630.578" y="51.3333"/>
      <point x="685.579" y="78" type="curve"/>
      <point x="698.439" y="35" type="line"/>
      <point x="642.588" y="4.33333"/>
      <point x="577.399" y="-10.6667"/>
      <point x="526.449" y="-12" type="curve"/>
      <point x="497.56" y="-12"/>
      <point x="445.297" y="-10.6017"/>
      <point x="412.976" y="14" type="curve"/>
      <point x="410" y="0" type="line"/>
      <point x="396.934" y="-3.1017"/>
      <point x="226.184" y="-10"/>
      <point x="203.874" y="-10" type="curve"/>
      <point x="101.848" y="-4.04075"/>
      <point x="34.407" y="39.5519"/>
      <point x="61.7095" y="168" type="curve" smooth="yes"/>
      <point x="79.3517" y="251" type="line" smooth="yes"/>
      <point x="103.177" y="363.09"/>
      <point x="184.535" y="402"/>
      <point x="264.448" y="402" type="curve" smooth="yes"/>
      <point x="329.781" y="402"/>
      <point x="387.184" y="375.667"/>
      <point x="428.182" y="349" type="curve"/>
      <point x="448.04" y="442.425"/>
      <point x="389.003" y="464"/>
      <point x="298.626" y="464" type="curve"/>
      <point x="303.077" y="478.667"/>
      <point x="305.599" y="493.667"/>
      <point x="309.766" y="507" type="curve"/>
      <point x="372.695" y="507"/>
      <point x="453.451" y="497.954"/>
      <point x="475.887" y="437" type="curve"/>
      <point x="519.14" y="483.667"/>
      <point x="576.979" y="508"/>
      <point x="648.979" y="508" type="curve" smooth="yes"/>
      <point x="756.901" y="508"/>
      <point x="812.58" y="449.67"/>
      <point x="789.482" y="341" type="curve" smooth="yes"/>
      <point x="761.85" y="211" type="line"/>
      <point x="454.449" y="195" type="line"/>
    </contour>
    <contour>
      <point x="418.192" y="302" type="line"/>
      <point x="370.862" y="329.581"/>
      <point x="312.246" y="354"/>
      <point x="249.245" y="354" type="curve" smooth="yes"/>
      <point x="214.163" y="354"/>
      <point x="153.093" y="339.172"/>
      <point x="133.927" y="249" type="curve" smooth="yes"/>
      <point x="118.197" y="175" type="line" smooth="yes"/>
      <point x="97.9889" y="79.9264"/>
      <point x="121.566" y="32.6649"/>
      <point x="256.077" y="38" type="curve"/>
      <point x="322.121" y="41.8954"/>
      <point x="363.732" y="46.3399"/>
      <point x="363.778" y="46" type="curve"/>
    </contour>
    <contour>
      <point x="733.97" y="348" type="line" smooth="yes"/>
      <point x="753.285" y="438.874"/>
      <point x="679.267" y="461"/>
      <point x="636.989" y="461" type="curve" smooth="yes"/>
      <point x="549.976" y="461"/>
      <point x="501.164" y="414.777"/>
      <point x="478.467" y="308" type="curve" smooth="yes"/>
      <point x="466.139" y="250" type="line"/>
      <point x="715.477" y="261" type="line"/>
    </contour>
  </outline>
</glyph>
<glyph name="eth" format="1">
  <advance width="424"/>
  <unicode hex="00F0"/>
  <outline>
    <contour>
      <point x="324.413" y="670" type="curve"/>
      <point x="337.577" y="699" type="line"/>
      <point x="401.735" y="690.333"/>
      <point x="447.481" y="664.833"/>
      <point x="474.816" y="622.5" type="curve" smooth="yes"/>
      <point x="502.152" y="580.167"/>
      <point x="509.442" y="529"/>
      <point x="496.689" y="469" type="curve" smooth="yes"/>
      <point x="436.748" y="187" type="line" smooth="yes"/>
      <point x="409.824" y="60.3333"/>
      <point x="327.754" y="-9"/>
      <point x="209.087" y="-9" type="curve" smooth="yes"/>
      <point x="90.4203" y="-9"/>
      <point x="41.9579" y="65.6667"/>
      <point x="67.7481" y="187" type="curve" smooth="yes"/>
      <point x="80.0764" y="245" type="line" smooth="yes"/>
      <point x="106.15" y="367.667"/>
      <point x="179.704" y="433"/>
      <point x="289.037" y="433" type="curve" smooth="yes"/>
      <point x="350.958" y="433"/>
      <point x="403.079" y="401.502"/>
      <point x="416.308" y="359" type="curve"/>
      <point x="441.815" y="479" type="line" smooth="yes"/>
      <point x="472.783" y="624.695"/>
      <point x="356.032" y="662.327"/>
    </contour>
    <contour>
      <point x="137.777" y="253" type="curve" smooth="yes"/>
      <point x="123.748" y="187" type="line" smooth="yes"/>
      <point x="103.059" y="89.6667"/>
      <point x="133.14" y="43"/>
      <point x="217.14" y="43" type="curve" smooth="yes"/>
      <point x="305.14" y="43"/>
      <point x="359.059" y="89.6667"/>
      <point x="379.748" y="187" type="curve" smooth="yes"/>
      <point x="392.714" y="248" type="line" smooth="yes"/>
      <point x="410.771" y="332.951"/>
      <point x="358.966" y="380"/>
      <point x="282.771" y="380" type="curve" smooth="yes"/>
      <point x="206.771" y="380"/>
      <point x="155.632" y="337"/>
    </contour>
    <contour>
      <point x="520.051" y="673" type="line"/>
      <point x="303.003" y="494" type="line"/>
      <point x="280.954" y="522" type="line"/>
      <point x="498.002" y="701" type="line"/>
    </contour>
  </outline>
</glyph>
<glyph name="dcroat" format="1">
  <advance width="456"/>
  <unicode hex="0111"/>
  <outline>
    <contour>
      <point x="579" y="562" type="line"/>
      <point x="590" y="615" type="line"/>
      <point x="354" y="615" type="line"/>
      <point x="343" y="562" type="line"/>
    </contour>
    <contour>
      <point x="413" y="0" type="line"/>
      <point x="414" y="0"/>
      <point x="408" y="0"/>
      <point x="396" y="-1" type="curve" smooth="yes"/>
      <point x="383" y="-2"/>
      <point x="369" y="-3"/>
      <point x="352" y="-4" type="curve" smooth="yes"/>
      <point x="335" y="-5"/>
      <point x="317" y="-7"/>
      <point x="299" y="-8" type="curve" smooth="yes"/>
      <point x="280" y="-9"/>
      <point x="265" y="-10"/>
      <point x="254" y="-10" type="curve"/>
      <point x="190" y="-13"/>
      <point x="135" y="-5"/>
      <point x="100" y="22" type="curve" smooth="yes"/>
      <point x="64" y="49"/>
      <point x="49" y="95"/>
      <point x="64" y="168" type="curve" smooth="yes"/>
      <point x="105" y="358" type="line" smooth="yes"/>
      <point x="116" y="414"/>
      <point x="146" y="452"/>
      <point x="183" y="476" type="curve" smooth="yes"/>
      <point x="220" y="499"/>
      <point x="263" y="508"/>
      <point x="302" y="508" type="curve" smooth="yes"/>
      <point x="367" y="508"/>
      <point x="417" y="491"/>
      <point x="458" y="471" type="curve"/>
      <point x="506" y="698" type="line"/>
      <point x="561" y="698" type="line"/>
    </contour>
    <contour>
      <point x="447" y="422" type="line"/>
      <point x="399" y="445"/>
      <point x="352" y="461"/>
      <point x="288" y="461" type="curve" smooth="yes"/>
      <point x="269" y="461"/>
      <point x="242" y="457"/>
      <point x="217" y="442" type="curve" smooth="yes"/>
      <point x="192" y="427"/>
      <point x="168" y="399"/>
      <point x="159" y="354" type="curve" smooth="yes"/>
      <point x="121" y="175" type="line" smooth="yes"/>
      <point x="110" y="127"/>
      <point x="112" y="92"/>
      <point x="133" y="69" type="curve" smooth="yes"/>
      <point x="153" y="46"/>
      <point x="193" y="35"/>
      <point x="260" y="38" type="curve" smooth="yes"/>
      <point x="292" y="40"/>
      <point x="318" y="42"/>
      <point x="338" y="44" type="curve"/>
      <point x="358" y="45"/>
      <point x="368" y="46"/>
      <point x="367" y="46" type="curve"/>
    </contour>
  </outline>
</glyph>
<glyph name="Hbar" format="1">
  <advance width="513"/>
  <unicode hex="0126"/>
  <outline>
    <component base="Eta"/>
    <contour>
      <point x="615.853" y="498" type="line"/>
      <point x="102.853" y="498" type="line"/>
      <point x="114.331" y="552" type="line"/>
      <point x="627.331" y="552" type="line"/>
    </contour>
  </outline>
</glyph>
<glyph name="dotlessj" format="1">
  <advance width="187"/>
  <unicode hex="0237"/>
  <outline>
    <contour>
      <point x="133.612" y="-63" type="line" smooth="yes"/>
      <point x="116.4" y="-144"/>
      <point x="78.6875" y="-185"/>
      <point x="-2.4125" y="-209" type="curve"/>
      <point x="-9.275" y="-166" type="line"/>
      <point x="40.55" y="-148"/>
      <point x="67.625" y="-110"/>
      <point x="77.825" y="-62" type="curve" smooth="yes"/>
      <point x="185.988" y="447" type="line"/>
      <point x="122.988" y="447" type="line"/>
      <point x="134.038" y="499" type="line"/>
      <point x="253.038" y="499" type="line"/>
    </contour>
  </outline>
</glyph>
<glyph name="circumflex" format="1">
  <advance width="266"/>
  <unicode hex="02C6"/>
  <outline>
    <contour>
      <point x="399.461" y="642" type="line"/>
      <point x="355.597" y="608" type="line"/>
      <point x="285.302" y="696" type="line"/>
      <point x="170.172" y="603" type="line"/>
      <point x="139.249" y="641" type="line"/>
      <point x="297.456" y="769" type="line"/>
    </contour>
  </outline>
</glyph>
<glyph name="tilde" format="1">
  <advance width="266"/>
  <unicode hex="02DC"/>
  <outline>
    <contour>
      <point x="357.403" y="717" type="line"/>
      <point x="407.403" y="717" type="line"/>
      <point x="403.577" y="699" type="line" smooth="yes"/>
      <point x="394.791" y="657.667"/>
      <point x="366.814" y="617"/>
      <point x="320.147" y="617" type="curve" smooth="yes"/>
      <point x="298.814" y="617"/>
      <point x="283.677" y="627.333"/>
      <point x="268.611" y="638" type="curve" smooth="yes"/>
      <point x="258.028" y="644.667"/>
      <point x="248.537" y="653.333"/>
      <point x="239.287" y="660" type="curve" smooth="yes"/>
      <point x="231.371" y="666.667"/>
      <point x="219.313" y="672.667"/>
      <point x="208.563" y="666" type="curve" smooth="yes"/>
      <point x="200.762" y="660.667"/>
      <point x="198.028" y="644.667"/>
      <point x="196.611" y="638" type="curve" smooth="yes"/>
      <point x="192.785" y="620" type="line"/>
      <point x="142.785" y="620" type="line"/>
      <point x="146.611" y="638" type="line" smooth="yes"/>
      <point x="151.712" y="662"/>
      <point x="162.168" y="687.667"/>
      <point x="185.852" y="705" type="curve" smooth="yes"/>
      <point x="209.253" y="721"/>
      <point x="238.728" y="721.667"/>
      <point x="259.128" y="711" type="curve"/>
      <point x="272.661" y="705.667"/>
      <point x="285.252" y="694.333"/>
      <point x="296.601" y="685" type="curve" smooth="yes"/>
      <point x="305.851" y="678.333"/>
      <point x="309.93" y="674"/>
      <point x="318.413" y="670" type="curve" smooth="yes"/>
      <point x="340.146" y="659.333"/>
      <point x="349.609" y="680.333"/>
      <point x="353.577" y="699" type="curve" smooth="yes"/>
    </contour>
  </outline>
</glyph>
<glyph name="hungarumlaut" format="1">
  <advance width="266"/>
  <unicode hex="02DD"/>
  <outline>
    <contour>
      <point x="284.862" y="658" type="curve" smooth="yes"/>
      <point x="214.283" y="580" type="line"/>
      <point x="179.283" y="580" type="line"/>
      <point x="239.814" y="686" type="line" smooth="yes"/>
      <point x="250.448" y="704.667"/>
      <point x="272.999" y="716.667"/>
      <point x="288.065" y="706" type="curve"/>
      <point x="304.748" y="696.667"/>
      <point x="299.28" y="673.687"/>
    </contour>
    <contour>
      <point x="395.862" y="658" type="curve" smooth="yes"/>
      <point x="326.283" y="580" type="line"/>
      <point x="291.283" y="580" type="line"/>
      <point x="350.814" y="686" type="line" smooth="yes"/>
      <point x="361.448" y="704.667"/>
      <point x="383.999" y="716.667"/>
      <point x="399.065" y="706" type="curve"/>
      <point x="415.748" y="696.667"/>
      <point x="410.648" y="674.323"/>
    </contour>
  </outline>
</glyph>
<glyph name="uni0306" format="1">
  <advance width="266"/>
  <unicode hex="0306"/>
  <outline>
    <contour>
      <point x="394" y="702" type="line"/>
      <point x="392" y="695" type="line"/>
      <point x="385" y="663"/>
      <point x="367" y="635"/>
      <point x="343" y="615" type="curve" smooth="yes"/>
      <point x="318" y="595"/>
      <point x="287" y="582"/>
      <point x="256" y="582" type="curve" smooth="yes"/>
      <point x="225" y="582"/>
      <point x="200" y="595"/>
      <point x="184" y="615" type="curve" smooth="yes"/>
      <point x="168" y="635"/>
      <point x="160" y="663"/>
      <point x="167" y="695" type="curve"/>
      <point x="169" y="702" type="line"/>
      <point x="214" y="702" type="line"/>
      <point x="212" y="695" type="line"/>
      <point x="204" y="658"/>
      <point x="229" y="627"/>
      <point x="266" y="627" type="curve" smooth="yes"/>
      <point x="305" y="627"/>
      <point x="339" y="658"/>
      <point x="347" y="695" type="curve"/>
      <point x="349" y="702" type="line"/>
    </contour>
  </outline>
</glyph>
<glyph name="uni0308" format="1">
  <advance width="266"/>
  <unicode hex="0308"/>
  <outline>
    <contour>
      <point x="230" y="740"/>
      <point x="242" y="725"/>
      <point x="238" y="706" type="curve" smooth="yes"/>
      <point x="234" y="687"/>
      <point x="216" y="673"/>
      <point x="197" y="673" type="curve" smooth="yes"/>
      <point x="180" y="673"/>
      <point x="167" y="687"/>
      <point x="171" y="706" type="curve" smooth="yes"/>
      <point x="175" y="725"/>
      <point x="194" y="740"/>
      <point x="211" y="740" type="curve" smooth="yes"/>
    </contour>
    <contour>
      <point x="388" y="740"/>
      <point x="399" y="725"/>
      <point x="395" y="706" type="curve" smooth="yes"/>
      <point x="391" y="687"/>
      <point x="374" y="673"/>
      <point x="355" y="673" type="curve" smooth="yes"/>
      <point x="336" y="673"/>
      <point x="325" y="687"/>
      <point x="329" y="706" type="curve" smooth="yes"/>
      <point x="333" y="725"/>
      <point x="350" y="740"/>
      <point x="369" y="740" type="curve" smooth="yes"/>
    </contour>
  </outline>
</glyph>
<glyph name="Theta" format="1">
  <advance width="490"/>
  <unicode hex="0398"/>
  <outline>
    <contour>
      <point x="141.554" y="506" type="line" smooth="yes"/>
      <point x="170.461" y="642"/>
      <point x="265.765" y="714"/>
      <point x="397.765" y="714" type="curve" smooth="yes"/>
      <point x="529.765" y="714"/>
      <point x="589.115" y="635.667"/>
      <point x="561.341" y="505" type="curve" smooth="yes"/>
      <point x="493.323" y="185" type="line" smooth="yes"/>
      <point x="467.666" y="64.295"/>
      <point x="366.241" y="-11"/>
      <point x="242.662" y="-11" type="curve" smooth="yes"/>
      <point x="124.464" y="-11"/>
      <point x="45.9067" y="56.0164"/>
      <point x="73.323" y="185" type="curve" smooth="yes"/>
    </contour>
    <contour>
      <point x="508.467" y="515" type="line" smooth="yes"/>
      <point x="529.155" y="612.333"/>
      <point x="478.167" y="661"/>
      <point x="383.5" y="661" type="curve" smooth="yes"/>
      <point x="291.5" y="661"/>
      <point x="220.155" y="612.333"/>
      <point x="199.467" y="515" type="curve" smooth="yes"/>
      <point x="166.095" y="358" type="line"/>
      <point x="475.095" y="358" type="line"/>
    </contour>
    <contour>
      <point x="251.927" y="42" type="curve" smooth="yes"/>
      <point x="343.321" y="42"/>
      <point x="417.66" y="87.7876"/>
      <point x="438.536" y="186" type="curve" smooth="yes"/>
      <point x="462.98" y="301" type="line"/>
      <point x="153.98" y="301" type="line"/>
      <point x="129.536" y="186" type="line" smooth="yes"/>
      <point x="109.118" y="89.9435"/>
      <point x="164.337" y="42"/>
    </contour>
  </outline>
</glyph>
<glyph name="Sigma" format="1">
  <advance width="521"/>
  <unicode hex="03A3"/>
  <outline>
    <contour>
      <point x="353.628" y="50" type="line" smooth="yes"/>
      <point x="404.295" y="50"/>
      <point x="449.417" y="75.6667"/>
      <point x="473.719" y="121" type="curve"/>
      <point x="513.531" y="106" type="line"/>
      <point x="476.327" y="31.3333"/>
      <point x="425.667" y="0"/>
      <point x="347" y="0" type="curve" smooth="yes"/>
      <point x="25" y="0" type="line"/>
      <point x="331.622" y="384" type="line"/>
      <point x="189.365" y="698" type="line"/>
      <point x="616.365" y="698" type="line"/>
      <point x="586.099" y="645" type="line"/>
      <point x="278.099" y="645" type="line"/>
      <point x="399" y="381" type="line"/>
      <point x="133" y="50" type="line"/>
    </contour>
  </outline>
</glyph>
<glyph name="Phi" format="1">
  <advance width="593"/>
  <unicode hex="03A6"/>
  <outline>
    <contour>
      <point x="320.075" y="659" type="line"/>
      <point x="256.451" y="644.856"/>
      <point x="215.696" y="596.06"/>
      <point x="198.679" y="516" type="curve" smooth="yes"/>
      <point x="134.7" y="215" type="line" smooth="yes"/>
      <point x="115.89" y="126.507"/>
      <point x="158.99" y="79"/>
      <point x="239.792" y="79" type="curve" smooth="yes"/>
      <point x="282.792" y="79" type="line"/>
      <point x="394.172" y="603" type="line" smooth="yes"/>
      <point x="408.49" y="671.403"/>
      <point x="463.81" y="708"/>
      <point x="526" y="708" type="curve" smooth="yes"/>
      <point x="643.068" y="708"/>
      <point x="691.995" y="630.399"/>
      <point x="666.191" y="509" type="curve" smooth="yes"/>
      <point x="605.613" y="224" type="line" smooth="yes"/>
      <point x="580.124" y="104.086"/>
      <point x="505.937" y="30"/>
      <point x="378.377" y="30" type="curve" smooth="yes"/>
      <point x="329.377" y="30" type="line"/>
      <point x="315.561" y="-35" type="line"/>
      <point x="260.048" y="-28" type="line"/>
      <point x="272.377" y="30" type="line"/>
      <point x="229.377" y="30" type="line" smooth="yes"/>
      <point x="101.76" y="30"/>
      <point x="55.1376" y="104.149"/>
      <point x="80.6127" y="224" type="curve" smooth="yes"/>
      <point x="142.679" y="516" type="line" smooth="yes"/>
      <point x="163.935" y="616"/>
      <point x="216.255" y="678.667"/>
      <point x="299.64" y="704" type="curve"/>
    </contour>
    <contour>
      <point x="388.792" y="79" type="line" smooth="yes"/>
      <point x="469.777" y="79"/>
      <point x="531.906" y="126.582"/>
      <point x="550.7" y="215" type="curve" smooth="yes"/>
      <point x="615.317" y="519" type="line" smooth="yes"/>
      <point x="632.541" y="600.032"/>
      <point x="596.865" y="656"/>
      <point x="525" y="656" type="curve" smooth="yes"/>
      <point x="486.753" y="656"/>
      <point x="456.798" y="628.551"/>
      <point x="448" y="587.228" type="curve" smooth="yes"/>
      <point x="339.792" y="79" type="line"/>
    </contour>
  </outline>
</glyph>
<glyph name="Psi" format="1">
  <advance width="589"/>
  <unicode hex="03A8"/>
  <outline>
    <contour>
      <point x="170.96" y="395" type="line" smooth="yes"/>
      <point x="152.255" y="307"/>
      <point x="194.902" y="263"/>
      <point x="274.902" y="263" type="curve" smooth="yes"/>
      <point x="318.902" y="263" type="line"/>
      <point x="411.364" y="698" type="line"/>
      <point x="468.364" y="698" type="line"/>
      <point x="375.902" y="263" type="line"/>
      <point x="425.902" y="263" type="line" smooth="yes"/>
      <point x="504.569" y="263"/>
      <point x="565.255" y="307"/>
      <point x="583.96" y="395" type="curve" smooth="yes"/>
      <point x="619.457" y="562" type="line"/>
      <point x="641.749" y="658.25"/>
      <point x="600.831" y="690"/>
      <point x="602.877" y="691" type="curve" smooth="yes"/>
      <point x="650.277" y="707" type="line"/>
      <point x="681.346" y="682.868"/>
      <point x="691.362" y="636.827"/>
      <point x="672.481" y="548" type="curve" smooth="yes"/>
      <point x="642.085" y="405" type="line" smooth="yes"/>
      <point x="616.295" y="283.667"/>
      <point x="541.729" y="212"/>
      <point x="415.062" y="212" type="curve" smooth="yes"/>
      <point x="365.062" y="212" type="line"/>
      <point x="320" y="0" type="line"/>
      <point x="263" y="0" type="line"/>
      <point x="308.062" y="212" type="line"/>
      <point x="264.062" y="212" type="line" smooth="yes"/>
      <point x="138.729" y="212"/>
      <point x="91.2952" y="283.667"/>
      <point x="117.085" y="405" type="curve" smooth="yes"/>
      <point x="179.364" y="698" type="line"/>
      <point x="235.364" y="698" type="line"/>
    </contour>
  </outline>
</glyph>
<glyph name="alpha" format="1">
  <advance width="438"/>
  <unicode hex="03B1"/>
  <outline>
    <contour>
      <point x="505.09" y="485" type="line"/>
      <point x="505.09" y="485"/>
      <point x="490.013" y="447"/>
      <point x="479.81" y="399" type="curve" smooth="yes"/>
      <point x="395.85" y="4" type="line"/>
      <point x="397.933" y="3.8954"/>
      <point x="268.832" y="-2.32682"/>
      <point x="224.15" y="-4" type="curve" smooth="yes"/>
      <point x="127.952" y="-6.6565"/>
      <point x="34.8985" y="18.341"/>
      <point x="66.7095" y="168" type="curve" smooth="yes"/>
      <point x="106.032" y="353" type="line" smooth="yes"/>
      <point x="131.222" y="471.509"/>
      <point x="210.92" y="506"/>
      <point x="285.554" y="506" type="curve" smooth="yes"/>
      <point x="338.887" y="506"/>
      <point x="395.748" y="488"/>
      <point x="443.414" y="463" type="curve"/>
      <point x="443.414" y="463"/>
      <point x="453.869" y="488.667"/>
      <point x="465.554" y="506" type="curve"/>
    </contour>
    <contour>
      <point x="120.434" y="162" type="line" smooth="yes"/>
      <point x="104.563" y="87.3333"/>
      <point x="136.111" y="46"/>
      <point x="214.778" y="46" type="curve"/>
      <point x="286.054" y="46.2222"/>
      <point x="349.679" y="51.7778"/>
      <point x="350.053" y="52" type="curve"/>
      <point x="426.998" y="414" type="line"/>
      <point x="369" y="442"/>
      <point x="330" y="454"/>
      <point x="285.554" y="454" type="curve" smooth="yes"/>
      <point x="251.072" y="454"/>
      <point x="181.142" y="447.607"/>
      <point x="160.395" y="350" type="curve" smooth="yes"/>
    </contour>
  </outline>
</glyph>
<glyph name="beta" format="1">
  <advance width="441"/>
  <unicode hex="03B2"/>
  <outline>
    <contour>
      <point x="149.529" y="520" type="line" smooth="yes"/>
      <point x="170.352" y="615.926"/>
      <point x="244.136" y="701"/>
      <point x="356.002" y="701" type="curve" smooth="yes"/>
      <point x="449" y="701"/>
      <point x="487.569" y="634.667"/>
      <point x="465.631" y="544" type="curve" smooth="yes"/>
      <point x="455.795" y="504"/>
      <point x="428.538" y="441.98"/>
      <point x="358.873" y="404" type="curve"/>
      <point x="374.873" y="404" type="line"/>
      <point x="445.202" y="395.997"/>
      <point x="486.908" y="357.117"/>
      <point x="464.777" y="253" type="curve" smooth="yes"/>
      <point x="446.71" y="168" type="line" smooth="yes"/>
      <point x="415.468" y="21.0222"/>
      <point x="322.031" y="-13.9692"/>
      <point x="193.874" y="-10" type="curve"/>
      <point x="169.87" y="-10"/>
      <point x="128.897" y="-5"/>
      <point x="96.3619" y="2" type="curve"/>
      <point x="49.938" y="-212" type="line"/>
      <point x="0.371794" y="-187.007" type="line"/>
    </contour>
    <contour>
      <point x="207" y="524" type="curve" smooth="yes"/>
      <point x="176" y="381" type="line"/>
      <point x="245.399" y="396" type="line" smooth="yes"/>
      <point x="336" y="416"/>
      <point x="388.73" y="477.395"/>
      <point x="407" y="543" type="curve" smooth="yes"/>
      <point x="422.524" y="598.743"/>
      <point x="400.333" y="645"/>
      <point x="343" y="645" type="curve" smooth="yes"/>
      <point x="276.501" y="645"/>
      <point x="220" y="584"/>
    </contour>
    <contour>
      <point x="107" y="50" type="line"/>
      <point x="106.655" y="50.4379"/>
      <point x="146.124" y="38"/>
      <point x="210.077" y="38" type="curve" smooth="yes"/>
      <point x="343.015" y="38"/>
      <point x="374.958" y="79.7793"/>
      <point x="395.197" y="175" type="curve" smooth="yes"/>
      <point x="411.352" y="251" type="line" smooth="yes"/>
      <point x="430.566" y="341.398"/>
      <point x="375.449" y="356"/>
      <point x="337.67" y="356" type="curve" smooth="yes"/>
      <point x="304.337" y="356"/>
      <point x="254.643" y="345.662"/>
      <point x="222" y="338" type="curve" smooth="yes"/>
      <point x="164.565" y="324.519" type="line"/>
    </contour>
  </outline>
</glyph>
<glyph name="gamma" format="1">
  <advance width="503"/>
  <unicode hex="03B3"/>
  <outline>
    <contour>
      <point x="583.389" y="477" type="line"/>
      <point x="522.633" y="458.72"/>
      <point x="485" y="398"/>
      <point x="473.496" y="374" type="curve" smooth="yes"/>
      <point x="251.672" y="-58" type="line"/>
      <point x="226.713" y="-100.479"/>
      <point x="193.581" y="-195.331"/>
      <point x="72.9138" y="-198" type="curve"/>
      <point x="72.0537" y="-155" type="line"/>
      <point x="127.001" y="-152.981"/>
      <point x="161.098" y="-121.335"/>
      <point x="184.208" y="-79" type="curve"/>
      <point x="221.725" y="-6" type="line"/>
      <point x="169.662" y="16.3165"/>
      <point x="160" y="70"/>
      <point x="155.207" y="128" type="curve" smooth="yes"/>
      <point x="125.853" y="498" type="line"/>
      <point x="182.853" y="498" type="line"/>
      <point x="212.545" y="139" type="line" smooth="yes"/>
      <point x="218" y="75"/>
      <point x="228.024" y="55"/>
      <point x="248.14" y="43" type="curve"/>
      <point x="426.047" y="386" type="line" smooth="yes"/>
      <point x="463" y="457"/>
      <point x="492.629" y="496.04"/>
      <point x="552.979" y="508" type="curve"/>
    </contour>
  </outline>
</glyph>
<glyph name="eta" format="1">
  <advance width="443"/>
  <unicode hex="03B7"/>
  <outline>
    <contour>
      <point x="423.694" y="342" type="line" smooth="yes"/>
      <point x="443.029" y="432.964"/>
      <point x="382.463" y="458"/>
      <point x="318.351" y="458" type="curve" smooth="yes"/>
      <point x="273.018" y="458"/>
      <point x="230.275" y="446.667"/>
      <point x="184.124" y="424" type="curve"/>
      <point x="94" y="0" type="line"/>
      <point x="38" y="0" type="line"/>
      <point x="144.066" y="499" type="line"/>
      <point x="200.066" y="499" type="line"/>
      <point x="192.839" y="465" type="line"/>
      <point x="237.174" y="491.667"/>
      <point x="290.645" y="508"/>
      <point x="339.979" y="508" type="curve" smooth="yes"/>
      <point x="450.298" y="508"/>
      <point x="501.639" y="449.946"/>
      <point x="479.332" y="345" type="curve" smooth="yes"/>
      <point x="361.576" y="-209" type="line"/>
      <point x="311.464" y="-186" type="line"/>
    </contour>
  </outline>
</glyph>
<glyph name="kappa" format="1">
  <advance width="433"/>
  <unicode hex="03BA"/>
  <outline>
    <contour>
      <point x="338.869" y="117" type="line"/>
      <point x="363.9" y="71.6667"/>
      <point x="388.323" y="47"/>
      <point x="414.99" y="47" type="curve"/>
      <point x="406.787" y="-1" type="line"/>
      <point x="382.121" y="-1"/>
      <point x="361.659" y="4.66667"/>
      <point x="345.401" y="16" type="curve"/>
      <point x="329.852" y="30.6667"/>
      <point x="315.594" y="42"/>
      <point x="307.478" y="54" type="curve" smooth="yes"/>
      <point x="300.695" y="66"/>
      <point x="289.663" y="84.6667"/>
      <point x="276.381" y="110" type="curve" smooth="yes"/>
      <point x="202.777" y="253" type="line"/>
      <point x="135.874" y="197" type="line"/>
      <point x="94" y="0" type="line"/>
      <point x="38" y="0" type="line"/>
      <point x="146.404" y="510" type="line"/>
      <point x="199.641" y="497" type="line"/>
      <point x="152.028" y="273" type="line"/>
      <point x="407.066" y="499" type="line"/>
      <point x="481.066" y="499" type="line"/>
      <point x="249.704" y="295" type="line"/>
    </contour>
  </outline>
</glyph>
<glyph name="lambda" format="1">
  <advance width="502"/>
  <unicode hex="03BB"/>
  <outline>
    <contour>
      <point x="423.144" y="123" type="line"/>
      <point x="424.428" y="101.661"/>
      <point x="434.414" y="37.8882"/>
      <point x="488.251" y="20" type="curve"/>
      <point x="474.267" y="10.6667"/>
      <point x="458.929" y="-0.333333"/>
      <point x="444.662" y="-11" type="curve"/>
      <point x="387.924" y="3.43599"/>
      <point x="375.844" y="39.7338"/>
      <point x="368.594" y="111" type="curve" smooth="yes"/>
      <point x="358.329" y="225.925"/>
      <point x="349.047" y="339.307"/>
      <point x="338.501" y="454" type="curve"/>
      <point x="313.283" y="442"/>
      <point x="292.295" y="421.667"/>
      <point x="260.308" y="359" type="curve" smooth="yes"/>
      <point x="199.009" y="239.406"/>
      <point x="140.086" y="118.594"/>
      <point x="78.7874" y="-1" type="curve"/>
      <point x="22.7874" y="-1" type="line"/>
      <point x="84.4763" y="121.671"/>
      <point x="147.34" y="246.101"/>
      <point x="209.646" y="370" type="curve"/>
      <point x="239.983" y="428.017"/>
      <point x="271.177" y="481.9"/>
      <point x="332.128" y="504" type="curve"/>
      <point x="325.433" y="576" type="line"/>
      <point x="322.816" y="619.481"/>
      <point x="298.834" y="652"/>
      <point x="245.587" y="652" type="curve"/>
      <point x="264.727" y="695" type="line"/>
      <point x="384.347" y="692.329"/>
      <point x="378.093" y="597.326"/>
      <point x="384.969" y="555" type="curve"/>
    </contour>
  </outline>
</glyph>
<glyph name="pi" format="1">
  <advance width="472"/>
  <unicode hex="03C0"/>
  <outline>
    <contour>
      <point x="427.666" y="69" type="line"/>
      <point x="426.365" y="50.3333"/>
      <point x="434.794" y="36.6667"/>
      <point x="448.526" y="26" type="curve"/>
      <point x="414.725" y="-6" type="line"/>
      <point x="414.83" y="-6.549"/>
      <point x="360.07" y="10.7843"/>
      <point x="374.579" y="78" type="curve" smooth="yes"/>
      <point x="455.076" y="452" type="line"/>
      <point x="190.076" y="452" type="line"/>
      <point x="94" y="0" type="line"/>
      <point x="38" y="0" type="line"/>
      <point x="143.853" y="498" type="line"/>
      <point x="518.853" y="498" type="line"/>
    </contour>
  </outline>
</glyph>
<glyph name="upsilon" format="1">
  <advance width="440"/>
  <unicode hex="03C5"/>
  <outline>
    <contour>
      <point x="443.11" y="184" type="line" smooth="yes"/>
      <point x="419" y="68"/>
      <point x="345" y="-10"/>
      <point x="223" y="-10" type="curve" smooth="yes"/>
      <point x="98" y="-10"/>
      <point x="50.2093" y="76.2586"/>
      <point x="73.1104" y="184" type="curve" smooth="yes"/>
      <point x="140.066" y="499" type="line"/>
      <point x="197.066" y="499" type="line"/>
      <point x="127.985" y="174" type="line" smooth="yes"/>
      <point x="111.091" y="94.5207"/>
      <point x="152.368" y="40"/>
      <point x="232.502" y="40" type="curve" smooth="yes"/>
      <point x="316.476" y="40"/>
      <point x="369.623" y="92.3209"/>
      <point x="386.985" y="174" type="curve" smooth="yes"/>
      <point x="456.066" y="499" type="line"/>
      <point x="510.066" y="499" type="line"/>
    </contour>
  </outline>
</glyph>
<glyph name="quotedblleft" format="1">
  <advance width="306"/>
  <unicode hex="201C"/>
  <outline>
    <contour>
      <point x="424.79" y="700" type="line"/>
      <point x="397.788" y="673.333"/>
      <point x="385.382" y="646.333"/>
      <point x="376.848" y="625" type="curve"/>
      <point x="393.331" y="621"/>
      <point x="402.234" y="608"/>
      <point x="398.833" y="592" type="curve" smooth="yes"/>
      <point x="394.866" y="573.333"/>
      <point x="376.486" y="559"/>
      <point x="357.819" y="559" type="curve" smooth="yes"/>
      <point x="340.486" y="559"/>
      <point x="327.582" y="572"/>
      <point x="331.833" y="592" type="curve" smooth="yes"/>
      <point x="345.309" y="655.398"/>
      <point x="387.303" y="693.001"/>
      <point x="410.34" y="712" type="curve"/>
    </contour>
    <contour>
      <point x="245.79" y="700" type="line"/>
      <point x="218.788" y="673.333"/>
      <point x="205.049" y="646.333"/>
      <point x="197.848" y="625" type="curve"/>
      <point x="214.331" y="621"/>
      <point x="223.234" y="608"/>
      <point x="219.833" y="592" type="curve" smooth="yes"/>
      <point x="215.866" y="573.333"/>
      <point x="197.486" y="559"/>
      <point x="178.819" y="559" type="curve" smooth="yes"/>
      <point x="161.486" y="559"/>
      <point x="148.582" y="572"/>
      <point x="152.833" y="592" type="curve" smooth="yes"/>
      <point x="166.212" y="654.94"/>
      <point x="208.143" y="693.694"/>
      <point x="230.34" y="712" type="curve"/>
    </contour>
  </outline>
</glyph>
<glyph name="ellipsis" format="1">
  <advance width="488"/>
  <unicode hex="2026"/>
  <outline>
    <contour>
      <point x="81.3911" y="63" type="curve" smooth="yes"/>
      <point x="100.058" y="63"/>
      <point x="111.132" y="47.6667"/>
      <point x="107.164" y="29" type="curve" smooth="yes"/>
      <point x="103.48" y="11.6667"/>
      <point x="85.8165" y="-4"/>
      <point x="67.1498" y="-4" type="curve" smooth="yes"/>
      <point x="48.4831" y="-4"/>
      <point x="37.4799" y="11.6667"/>
      <point x="41.1641" y="29" type="curve" smooth="yes"/>
      <point x="45.1319" y="47.6667"/>
      <point x="62.7244" y="63"/>
    </contour>
    <contour>
      <point x="256.391" y="63" type="curve" smooth="yes"/>
      <point x="273.724" y="63"/>
      <point x="286.132" y="47.6667"/>
      <point x="282.164" y="29" type="curve" smooth="yes"/>
      <point x="278.48" y="11.6667"/>
      <point x="259.483" y="-4"/>
      <point x="242.15" y="-4" type="curve" smooth="yes"/>
      <point x="223.483" y="-4"/>
      <point x="211.48" y="11.6667"/>
      <point x="215.164" y="29" type="curve" smooth="yes"/>
      <point x="219.132" y="47.6667"/>
      <point x="237.724" y="63"/>
    </contour>
    <contour>
      <point x="434.391" y="63" type="curve" smooth="yes"/>
      <point x="453.058" y="63"/>
      <point x="464.132" y="47.6667"/>
      <point x="460.164" y="29" type="curve" smooth="yes"/>
      <point x="456.48" y="11.6667"/>
      <point x="438.816" y="-4"/>
      <point x="420.15" y="-4" type="curve" smooth="yes"/>
      <point x="401.483" y="-4"/>
      <point x="390.48" y="11.6667"/>
      <point x="394.164" y="29" type="curve" smooth="yes"/>
      <point x="398.132" y="47.6667"/>
      <point x="415.724" y="63"/>
    </contour>
  </outline>
</glyph>
<glyph name="fl" format="1">
  <advance width="369"/>
  <unicode hex="FB02"/>
  <outline>
    <contour>
      <point x="401.998" y="621" type="line"/>
      <point x="372.632" y="639.667"/>
      <point x="347.645" y="646"/>
      <point x="326.312" y="646" type="curve" smooth="yes"/>
      <point x="278.456" y="646"/>
      <point x="228.312" y="617.776"/>
      <point x="213.481" y="548" type="curve" smooth="yes"/>
      <point x="202.853" y="498" type="line"/>
      <point x="317.853" y="498" type="line"/>
      <point x="282.8" y="446" type="line"/>
      <point x="191.8" y="446" type="line"/>
      <point x="97" y="0" type="line"/>
      <point x="41" y="0" type="line"/>
      <point x="160.032" y="560" type="line"/>
      <point x="176.013" y="647.688"/>
      <point x="258.387" y="705"/>
      <point x="341.852" y="705" type="curve" smooth="yes"/>
      <point x="385.852" y="705"/>
      <point x="431.139" y="690.667"/>
      <point x="466.437" y="656" type="curve"/>
      <point x="327" y="0" type="line"/>
      <point x="270" y="0" type="line"/>
    </contour>
  </outline>
</glyph>
<glyph name="ffl" format="1">
  <advance width="596"/>
  <unicode hex="FB04"/>
  <outline>
    <contour>
      <point x="631.273" y="627" type="line"/>
      <point x="583.608" y="653.667"/>
      <point x="542.97" y="650.667"/>
      <point x="513.186" y="636" type="curve" smooth="yes"/>
      <point x="476.168" y="618.667"/>
      <point x="453.621" y="591"/>
      <point x="445.969" y="555" type="curve" smooth="yes"/>
      <point x="433.853" y="498" type="line"/>
      <point x="547.853" y="498" type="line"/>
      <point x="512.8" y="446" type="line"/>
      <point x="422.8" y="446" type="line"/>
      <point x="328" y="0" type="line"/>
      <point x="268" y="0" type="line"/>
      <point x="386.819" y="559" type="line" smooth="yes"/>
      <point x="391.286" y="580.015"/>
      <point x="402.058" y="599.275"/>
      <point x="414.36" y="618" type="curve"/>
      <point x="388.994" y="636.667"/>
      <point x="364" y="647"/>
      <point x="339.162" y="650" type="curve" smooth="yes"/>
      <point x="279" y="657"/>
      <point x="228.292" y="627.09"/>
      <point x="211.481" y="548" type="curve" smooth="yes"/>
      <point x="200.853" y="498" type="line"/>
      <point x="314.853" y="498" type="line"/>
      <point x="280.8" y="446" type="line"/>
      <point x="189.8" y="446" type="line"/>
      <point x="95" y="0" type="line"/>
      <point x="39" y="0" type="line"/>
      <point x="157.819" y="559" type="line" smooth="yes"/>
      <point x="181.089" y="668.478"/>
      <point x="281.14" y="704"/>
      <point x="330.64" y="704" type="curve" smooth="yes"/>
      <point x="378.64" y="704"/>
      <point x="420.997" y="690"/>
      <point x="453.712" y="662" type="curve"/>
      <point x="486.047" y="688.667"/>
      <point x="528.427" y="703"/>
      <point x="576.427" y="703" type="curve" smooth="yes"/>
      <point x="624.427" y="703"/>
      <point x="660.806" y="690.667"/>
      <point x="695.138" y="664" type="curve"/>
      <point x="554" y="0" type="line"/>
      <point x="498" y="0" type="line"/>
    </contour>
  </outline>
</glyph>
<glyph name="ft" format="1">
  <advance width="469"/>
  <outline>
    <contour>
      <point x="352.057" y="132" type="line" smooth="yes"/>
      <point x="340.721" y="78.6667"/>
      <point x="355.494" y="44.6667"/>
      <point x="396.377" y="30" type="curve"/>
      <point x="371.237" y="-13" type="line"/>
      <point x="301.105" y="8.33333"/>
      <point x="280.336" y="53.3333"/>
      <point x="297.057" y="132" type="curve" smooth="yes"/>
      <point x="400.998" y="621" type="line"/>
      <point x="374.865" y="642.333"/>
      <point x="346.645" y="646"/>
      <point x="325.312" y="646" type="curve" smooth="yes"/>
      <point x="276.777" y="646"/>
      <point x="228.307" y="617.751"/>
      <point x="213.481" y="548" type="curve" smooth="yes"/>
      <point x="202.853" y="498" type="line"/>
      <point x="315.853" y="498" type="line"/>
      <point x="280.8" y="446" type="line"/>
      <point x="191.8" y="446" type="line"/>
      <point x="97" y="0" type="line"/>
      <point x="78.3333" y="0"/>
      <point x="59.6667" y="0"/>
      <point x="41" y="0" type="curve"/>
      <point x="160.032" y="560" type="line"/>
      <point x="176.046" y="647.866"/>
      <point x="256.992" y="704"/>
      <point x="340.64" y="704" type="curve" smooth="yes"/>
      <point x="384.64" y="704"/>
      <point x="428.714" y="688.667"/>
      <point x="464.012" y="654" type="curve"/>
      <point x="430.853" y="498" type="line"/>
      <point x="549.853" y="498" type="line"/>
      <point x="515.8" y="446" type="line"/>
      <point x="418.8" y="446" type="line"/>
    </contour>
  </outline>
</glyph>
<glyph name="sigma_tau" format="1">
  <advance width="798"/>
  <outline>
    <contour>
      <point x="859" y="447" type="line"/>
      <point x="793" y="438"/>
      <point x="731" y="435"/>
      <point x="669" y="435" type="curve" smooth="yes"/>
      <point x="597" y="435"/>
      <point x="527" y="439"/>
      <point x="460" y="448" type="curve"/>
      <point x="474" y="426"/>
      <point x="483" y="394"/>
      <point x="467" y="320" type="curve" smooth="yes"/>
      <point x="437" y="185" type="line" smooth="yes"/>
      <point x="411" y="69"/>
      <point x="337" y="-10"/>
      <point x="216" y="-10" type="curve" smooth="yes"/>
      <point x="90" y="-10"/>
      <point x="43" y="77"/>
      <point x="67" y="185" type="curve" smooth="yes"/>
      <point x="97" y="320" type="line" smooth="yes"/>
      <point x="130" y="470"/>
      <point x="235" y="512"/>
      <point x="324" y="512" type="curve" smooth="yes"/>
      <point x="372" y="512"/>
      <point x="414" y="506"/>
      <point x="443" y="504" type="curve" smooth="yes"/>
      <point x="534" y="496"/>
      <point x="604" y="489"/>
      <point x="683" y="489" type="curve" smooth="yes"/>
      <point x="735" y="489"/>
      <point x="795" y="492"/>
      <point x="870" y="500" type="curve"/>
    </contour>
    <contour>
      <point x="412" y="334" type="line" smooth="yes"/>
      <point x="425" y="396"/>
      <point x="415" y="436"/>
      <point x="402" y="452" type="curve"/>
      <point x="375" y="456"/>
      <point x="343" y="459"/>
      <point x="322" y="459" type="curve" smooth="yes"/>
      <point x="254" y="459"/>
      <point x="179" y="429"/>
      <point x="157" y="327" type="curve" smooth="yes"/>
      <point x="125" y="175" type="line" smooth="yes"/>
      <point x="108" y="95"/>
      <point x="147" y="40"/>
      <point x="229" y="40" type="curve" smooth="yes"/>
      <point x="310" y="40"/>
      <point x="361" y="93"/>
      <point x="378" y="175" type="curve" smooth="yes"/>
    </contour>
    <contour>
      <point x="659" y="133" type="line" smooth="yes"/>
      <point x="647" y="79"/>
      <point x="663" y="46"/>
      <point x="704" y="30" type="curve"/>
      <point x="678" y="-13" type="line"/>
      <point x="608" y="9"/>
      <point x="587" y="54"/>
      <point x="603" y="133" type="curve" smooth="yes"/>
      <point x="670" y="447" type="line"/>
      <point x="727" y="447" type="line"/>
    </contour>
  </outline>
</glyph>
